<svg xmlns="http://www.w3.org/2000/svg" viewBox="0 0 3000 3000" xmlns:xlink="http://www.w3.org/1999/xlink"><g id="tailFur"><clipPath id="tailFurClipPath"><path fill="none" d="M2518.1 1775.9c67.6-29 132.5 39.9 146.6 73.7 48 115.1-49.4 194.9-49.4 194.9-36.6 34.8-88.5 67.7-157.3 88.8-175.3 53.8-339.2-38.4-422.2-99l-34.7-24.9-36.1 140.1 220.6 76.5a852.5 852.5 0 0 0 229 11.7c98.1-8.4 186.9-29.1 266-104.6 93.6-89.2 148.9-239.5 82.8-373.6-44.5-90.3-152-191.5-273.6-171.9-89 14.4-190.9 94.4-182.7 186.5 5.8 64 64.6 132.1 133.1 133.9 48.3 1.2 112.1-30.2 112.1-73.4-.1-34.5-40.8-73.1-100.9-79.4"></path></clipPath><g clip-path="url(#tailFurClipPath)"><path fill="#d1dadf" d="M1904 1577.4h939v668.54h-939z"></path><path d="M2727.8 1792.1c7.8 23.7 2.9 49.5.4 74.3-4 38.4-1.7 79.3 18.5 112.2s62.1 54.8 98.5 42c23.4-8.2 40.8-29.1 49.9-52.2s10.9-48.4 11-73.3c.4-64.2-10.1-129.7-40.4-186.3-32-59.6-93.2-115.1-163.5-120.9s-95.2 66-51.6 117c25 29.4 64.4 48.5 77.2 87.2zM2329.5 2122.5c12.3-9.2 28.5 4.1 38 16 12.7 16 25.7 32 42.4 43.8s37.5 19 57.5 15.2c48.8-9.2 66.3-73.4 110.6-96 17.3-8.8 37.8-10.7 53.7-21.9 19.8-13.9 28.2-42.1 19.2-64.5s-34.5-37.1-58.4-33.5c-12.8 1.9-24.5 8.3-36.3 13.7-49.8 22.8-105.5 28.5-160.1 33.8M2217.5 2161.1c28.3 26 74 16.6 109.5 31.6 44.1 18.5 66 71.6 110.1 90.1 8.5 3.5 18.7 6.8 21.7 15.4s-3 17.6-9.5 24.1c-36.5 36.1-92.6 41.1-143.9 44-24 1.4-48.3 2.7-71.8-2.2-21.1-4.4-40.8-13.7-60.2-23.1-64.1-31.1-129.2-65.3-174.8-120.1-13.7-16.4-25.6-35-30.2-55.9-3.6-16.5-2.5-33.7-1-50.5 1.7-19.3 4.3-39.4 15.5-55.2s30.3-25.7 48.4-34.3c43-20.6 91.4-16.3 124.6 21.1 28.9 32.6 29.7 85.7 61.6 115zM2544.6 1786.8c-7-9.9-22.3-5.6-32.9-11.5s-26.6-8-36-15.6c-16.3-13.2-9.3-33.3-24.6-47.7-9.7-9.2-25.4-9.3-37.7-4s-22 14.9-31.7 24.2-20 18.5-32.7 22.5c-11 3.5-23 2.9-33.8 6.9-17.2 6.4-28.4 23.4-34.1 40.9-13 40.3-1.5 86.3 24.7 119.5s65.6 54.6 106.8 64.4c33.3 7.9 68.8 8.7 101.2-2.3s61.1-34.7 74.1-66.4 8-71-15.6-95.7M2642.9 2121.9c21.9-10 45.6-15.5 69-20.9l104.5-24.2c-5.1 61.3-50.7 113.9-105.8 141.5-30.2 15.1-63.1 23.8-96.5 28.6-15.8 2.3-73.4 15.6-80.8-6.7-5.9-17.7 31.3-56.2 42.3-68.2 19.1-20.8 41.7-38.4 67.3-50.1z" fill="#44e192"></path><defs><linearGradient id="tailShadowGradient" x1="2364.15" y1="2291.47" x2="2364.15" y2="2013.47" gradientUnits="userSpaceOnUse"><stop offset="0" stop-color="gray"></stop><stop offset=".27" stop-color="#7d7d7d"></stop><stop offset=".46" stop-color="#747474"></stop><stop offset=".64" stop-color="#646464"></stop><stop offset=".8" stop-color="#4d4d4d"></stop><stop offset=".95" stop-color="#303030"></stop><stop offset="1" stop-color="#242424"></stop></linearGradient><linearGradient id="tailShadowGradient2" x1="2579.15" y1="1935.2" x2="2579.15" y2="1441.6" gradientUnits="userSpaceOnUse"><stop offset="0" stop-color="#fff" stop-opacity="0"></stop><stop offset=".72" stop-color="#fff"></stop></linearGradient><linearGradient id="tailShadowGradient3" x1="2583.8" y1="2124.84" x2="2583.8" y2="1726.66" href="#tailShadowGradient" xlink:href="#tailShadowGradient"></linearGradient></defs><g clip-path="url(#tailShadowClipPath)" style="mix-blend-mode:overlay"><path d="M2307.1 1774.1s77.1-188.9 277.1-114.6 203.7 275.7 203.7 275.7l134.3-263.7-234-212.5-344-17.4-108 123.9z" opacity=".35" fill="url(#tailShadowGradient2)" style="mix-blend-mode:overlay"></path></g><g clip-path="url(#tailShadowClipPath)" style="mix-blend-mode:multiply"><path d="M2135.9 2084.1c107 52 71.6 104 199.2 113.8 208.3 32.6 329.5-41.9 390.8-121l100.2-44.4-96 259-828-9.1 54-268.9s122.5 42.7 179.8 70.6z" opacity=".25" fill="url(#tailShadowGradient)" style="mix-blend-mode:multiply"></path><path d="M2519.6 1734.3c8.4-2.3 109.1-43.4 164.5 92.2 57.5 140.6-26.3 224.4-201.1 298.4l96.1-317.4s-20.1-11.2-61-31.6-52.7-18.9-52.7-18.9 20.5-10.4 54.2-22.7z" opacity=".25" fill="url(#tailShadowGradient3)" style="mix-blend-mode:multiply"></path></g></g></g><g id="tail"><path d="M2515.9 1770l5.8-2.2 1.6-.5 1.6-.5 3.3-1 3.3-.8 3.2-.7 3.3-.6 3.3-.5a92.5 92.5 0 0 1 26.4.8 110 110 0 0 1 25 7.6 138.2 138.2 0 0 1 22.6 12.5 169 169 0 0 1 20 16 181.2 181.2 0 0 1 17.5 18.7 139.6 139.6 0 0 1 14.5 21.4l1.5 3 1.4 3.1.3.8v.9l.6 1.4 1.1 2.9 2.2 5.8 2 6.2 1 3.1c.3 1 .7 2.1.9 3.1l1.5 6.2.8 3.1.6 3.2 1.1 6.3c.4 2.1.5 4.2.8 6.4l.4 3.2.2 1.6v1.6l.3 6.4v6.4a154.3 154.3 0 0 1-2.3 25.6l-1.2 6.3c-.5 2.1-1 4.2-1.5 6.2s-.5 2.1-.8 3.1l-.9 3.1-.9 3.1-.5 1.5-.5 1.5-2.1 6-2.4 5.9c-.8 2-1.7 3.9-2.6 5.8l-1.3 2.9-1.4 2.9a193.8 193.8 0 0 1-12.9 22 213.5 213.5 0 0 1-15.5 20.2c-2.8 3.2-5.6 6.3-8.6 9.4l-4.6 4.5-2.4 2.2-2.6 2.2.3-.3a366.6 366.6 0 0 1-68.8 51 404.9 404.9 0 0 1-38.1 19.4q-19.5 8.7-39.8 15.6l-10.2 3.3-2.5.8h-.8l-.6.2-1.3.4-5.1 1.4-10.2 2.8-10.5 2.5-5.3 1.2-5.3 1-10.5 2-10.6 1.5-5.3.7-5.3.6-10.7 1-10.7.6c-7.1.5-14.3.4-21.4.5l-10.7-.3-5.4-.2-5.3-.3-10.7-.7-10.6-1.1-5.3-.6-5.3-.7-10.6-1.5c-7-1.3-14.1-2.4-21-4-14-2.8-27.7-6.5-41.4-10.6l-10.2-3.2-10.1-3.4c-3.4-1.1-6.7-2.4-10-3.6s-6.7-2.4-10-3.8l-9.9-4-9.8-4.2-9.7-4.4-9.7-4.5c-12.8-6.1-25.4-12.7-37.8-19.6s-24.5-14.3-36.5-21.9-23.6-15.7-35-24l-34.2-24.6 9.7-3.5-35.8 140.3-4-7.5 220.6 76.5-.9-.2a866.3 866.3 0 0 0 126.3 14q31.8 1.1 63.6-.1c21.2-.8 42.3-2.5 63.4-4.9a628.3 628.3 0 0 0 62.5-10 412.3 412.3 0 0 0 60.4-18 344.9 344.9 0 0 0 56.3-27.9 331.7 331.7 0 0 0 50.1-37.9l5.8-5.3.7-.7.4-.3.3-.3 1.4-1.4 2.8-2.8c3.9-3.7 7.4-7.5 11-11.3l1.3-1.4 1.3-1.5 2.6-2.9c1.7-2 3.5-3.9 5.2-5.9 3.3-4.1 6.8-8 9.9-12.2l4.8-6.2 4.6-6.4 2.3-3.2 2.2-3.3 4.4-6.5c5.6-8.9 11.1-17.8 16-27.1 2.5-4.6 4.8-9.3 7.1-14 1.2-2.3 2.2-4.8 3.3-7.1s2.2-4.8 3.2-7.2l3-7.3 1.5-3.6 1.4-3.7 2.7-7.4 2.4-7.5c1.7-5 3-10 4.5-15.1.4-1.3.7-2.5 1-3.8l.9-3.8c.6-2.5 1.3-5.1 1.8-7.6l1.6-7.7c.2-1.3.6-2.6.7-3.9l.6-3.9 1.2-7.7.9-7.8a282.3 282.3 0 0 0 .3-62.5l-.4-3.9c-.1-1.3-.4-2.6-.5-3.9l-1.1-7.7-.3-1.9-.4-1.9-.8-3.8c-.5-2.6-.9-5.1-1.5-7.7l-1.9-7.6-.9-3.8-1.1-3.8-2.2-7.5c-.3-1.3-.8-2.5-1.2-3.7l-1.3-3.7c-13.7-39.4-36.7-75.5-64.5-106.9-7-7.8-14.4-15.3-22-22.5s-15.7-13.9-23.9-20.4-16.9-12.3-25.8-17.8l-6.7-4-3.4-2-3.5-1.8c-2.3-1.2-4.6-2.5-6.9-3.6l-7-3.4-3.6-1.6-3.6-1.5-3.6-1.5-3.6-1.4-7.3-2.7-7.4-2.4c-2.5-.8-5-1.4-7.5-2.1s-5-1.4-7.5-1.9l-7.6-1.6-7.7-1.2a183.9 183.9 0 0 0-30.9-1.9h-3.9l-3.9.3-7.7.6-7.7 1-1.9.3h-.8l-1 .2-3.9.7-3.9.7-3.7.9-3.7.8-3.8 1c-2.5.7-5 1.3-7.5 2.1s-5 1.5-7.4 2.4a238.4 238.4 0 0 0-28.8 12 265.3 265.3 0 0 0-27.2 15.4l-6.5 4.3-6.4 4.5-6.2 4.8c-2.1 1.6-4 3.3-6 5a224.5 224.5 0 0 0-22.3 21.7 177.5 177.5 0 0 0-18.6 24.7c-10.9 17.4-18.4 36.9-20.4 57.1-.2 2.5-.6 5-.5 7.6v7.6l.2 3.8v3.7l.5 4c.2 1.3.4 2.5.6 3.7s1 4.9 1.5 7.4.6 2.5.9 3.7.6 2.5 1 3.7 1.5 4.9 2.4 7.3l1.3 3.6 1.5 3.6a154.6 154.6 0 0 0 14.6 27 157 157 0 0 0 19.6 23.7c3.6 3.7 7.4 7 11.4 10.3a147.3 147.3 0 0 0 12.4 9 140.1 140.1 0 0 0 13.2 7.6 124 124 0 0 0 14 5.9 116.7 116.7 0 0 0 14.5 4 105 105 0 0 0 14.9 1.9h11.3l3.8-.3a138.1 138.1 0 0 0 15.1-2.2 144.7 144.7 0 0 0 14.8-3.8 136.8 136.8 0 0 0 14.4-5.3 118.7 118.7 0 0 0 26.2-15.3c7.9-6.1 14.7-13.6 19-22.1a42.5 42.5 0 0 0 4.2-13.3v-7.1a7.8 7.8 0 0 0-.1-.9v-.8c-.1-.6-.1-1.1-.2-1.7s-.3-2.3-.6-3.5a55 55 0 0 0-5.1-13.6 71.7 71.7 0 0 0-8.3-12.4 102 102 0 0 0-22.9-20.1 132.7 132.7 0 0 0-27.8-13.7q-7.4-2.6-15-4.5c-5.1-1.2-10.2-2.2-15.4-3a2.5 2.5 0 0 1 .6-5c21.6 1.5 43.2 7.6 62.3 18.9a106.8 106.8 0 0 1 25.9 21 81.9 81.9 0 0 1 10 13.8 65.5 65.5 0 0 1 6.5 16.1c.4 1.4.6 2.9.9 4.3s.4 3.2.6 4.6v8.8a52.1 52.1 0 0 1-4.9 17.2 68.6 68.6 0 0 1-9.6 14.7 89.8 89.8 0 0 1-12.3 11.9 128.7 128.7 0 0 1-28.7 17.4 154.4 154.4 0 0 1-31.7 10.3 151.2 151.2 0 0 1-16.6 2.5l-4.2.3-4.3.2h-8.4a118.3 118.3 0 0 1-16.8-2.1 124 124 0 0 1-16.3-4.6 137.3 137.3 0 0 1-15.5-6.6 147.7 147.7 0 0 1-14.5-8.4 160.3 160.3 0 0 1-13.4-9.9c-4.2-3.6-8.4-7.3-12.3-11.3a171.7 171.7 0 0 1-21-25.7 167.3 167.3 0 0 1-15.7-29.3l-1.6-3.9-1.4-3.9c-1-2.6-1.7-5.3-2.6-7.9s-.7-2.7-1.1-4-.7-2.7-1-4.1-1.2-5.4-1.6-8.3-.5-2.9-.7-4.2l-.5-4v-4.5l-.2-4.2v-8.4c0-2.8.3-5.6.6-8.4a135 135 0 0 1 7.6-32.6 161.5 161.5 0 0 1 14.7-29.9 190 190 0 0 1 19.9-26.4 236.9 236.9 0 0 1 23.6-22.9c2.1-1.7 4.2-3.5 6.3-5.2l6.5-5 6.7-4.8 6.8-4.6a277.8 277.8 0 0 1 28.5-16.2 250.9 250.9 0 0 1 30.3-12.6c2.6-1 5.2-1.7 7.8-2.5s5.3-1.5 7.9-2.3l4-1.1 4.1-.9 4.1-.9 4-.7 3.9-.7 1-.2h1.2l2-.3 8.2-1.1 8.2-.6 4.1-.3h4.1a196.3 196.3 0 0 1 32.9 2l8.2 1.3 8.1 1.7c2.7.5 5.3 1.3 8 2s5.3 1.3 7.9 2.2l7.8 2.5 7.7 2.8 3.8 1.5 3.8 1.6 3.8 1.6 3.7 1.7 7.4 3.5c2.5 1.2 4.8 2.5 7.3 3.8l3.6 1.9 3.5 2.1 7.1 4.1c9.3 5.7 18.2 12 26.9 18.6s16.9 13.7 24.8 21.2 15.5 15.2 22.7 23.3 14.1 16.5 20.6 25.2 12.6 17.7 18.3 27c2.8 4.7 5.6 9.3 8.2 14.2l2 3.6 1.8 3.6 1.8 3.6.5.9.3.5.2.5.9 1.9 3.4 7.4c.6 1.2 1.2 2.5 1.7 3.7l1.5 3.8 3.1 7.6c1 2.5 1.8 5.1 2.7 7.7l1.4 3.9c.5 1.3.9 2.6 1.3 3.9l2.3 7.8 1.2 3.9 1 4 1.9 8c.6 2.7 1.1 5.4 1.6 8l.8 4 .4 2 .3 2 1.2 8.1c.2 1.4.4 2.7.6 4.1l.4 4.1a294.8 294.8 0 0 1-.3 65.3l-1 8.1-1.3 8.1-.6 4c-.2 1.3-.5 2.7-.8 4l-1.6 8c-.5 2.7-1.3 5.3-1.9 7.9l-1 4c-.3 1.3-.6 2.6-1 3.9-1.5 5.2-2.9 10.5-4.6 15.6l-2.5 7.7-2.8 7.7-1.4 3.8-1.5 3.8-3.1 7.5c-1.1 2.5-2.2 5-3.3 7.4s-2.2 5-3.4 7.4c-2.4 4.9-4.7 9.8-7.4 14.5-5 9.6-10.7 18.9-16.5 28.1l-4.5 6.8-2.3 3.4-2.4 3.3-4.8 6.6-5 6.5c-3.3 4.3-6.8 8.5-10.2 12.7-1.7 2.1-3.6 4.1-5.4 6.1l-2.7 3-1.4 1.5-1.4 1.5c-3.8 4-7.5 8-11.3 11.7l-2.8 2.8-1.4 1.4-.4.4-.4.3-.8.7-6 5.5a344.1 344.1 0 0 1-51.9 39.3 357.4 357.4 0 0 1-58.3 28.9 424.8 424.8 0 0 1-62.2 18.6 640.4 640.4 0 0 1-63.9 10.3c-21.3 2.4-42.8 4.1-64.3 5s-43 .9-64.5.1a878.7 878.7 0 0 1-128.1-14.2h-.5l-.4-.2-220.6-76.5-5.4-1.9 1.4-5.6 36.2-140.2 2.3-8.8 7.4 5.3 34.2 24.6c11.3 8.3 22.8 16.1 34.5 23.7s23.7 14.7 35.8 21.5 24.5 13.3 37 19.3l9.5 4.4 9.5 4.3 9.6 4.1 9.7 3.9c3.2 1.3 6.5 2.5 9.7 3.7s6.5 2.5 9.8 3.5l9.9 3.4 9.9 3.1c13.3 4 26.7 7.6 40.3 10.4 6.8 1.5 13.6 2.6 20.4 3.9l10.3 1.5 5.1.7 5.2.5 10.3 1.1 10.4.7 5.2.3 5.2.2 10.4.3c6.9-.1 13.8 0 20.7-.5l10.4-.6 10.3-1 5.2-.5 5.1-.7 10.3-1.5 10.2-1.9 5.1-.9 5-1.2 10-2.3 10.1-2.8 5.1-1.4 1.3-.4.6-.2h.5l2.5-.8 9.9-3.2q19.7-6.7 38.7-15.2a392.4 392.4 0 0 0 37-18.8 354.1 354.1 0 0 0 65.7-49.9h.1l.2-.2 2.1-1.8 2.2-2 4.2-4.2c2.8-2.8 5.5-5.8 8.1-8.8a201 201 0 0 0 14.5-19 181.3 181.3 0 0 0 12.1-20.6l1.3-2.7 1.2-2.7c.8-1.8 1.7-3.6 2.4-5.5l2.2-5.5 2-5.6.5-1.4.4-1.4.9-2.8.9-2.8c.3-.9.5-1.9.7-2.9s1-3.8 1.4-5.8l1.1-5.8a141.8 141.8 0 0 0 2.1-23.6v-6l-.3-5.9v-1.5l-.2-1.5-.3-2.9c-.2-2-.4-3.9-.7-5.9l-1-5.8-.5-2.9-.7-2.9-1.4-5.8c-.2-1-.5-1.9-.8-2.8l-.9-2.8-1.7-5.6-2.2-5.8-1.1-2.9-.6-1.4v-.7l-.3-.6-1.2-2.6-1.3-2.5a127.3 127.3 0 0 0-13.2-19.4 164.1 164.1 0 0 0-34.8-32.2c-13-8.8-27.6-15.5-42.7-18.1a79.9 79.9 0 0 0-22.8-.7l-2.8.4-2.8.5-2.8.6-2.7.7-2.6.8-1.3.4-1.4.5-5.8 2.2a6.3 6.3 0 0 1-4.8-11.8z" fill="#31323d"></path></g><g id="bodyFur"><clipPath id="furClipPath"><path d="M1717.4,967.2a241.5,241.5,0,0,1,13.7,36.8l16.7,65.1c7.6,32.4,19.5,65.2,43.6,88.3s53.4,39.9,79.7,60.6c90,71,134.4,191.2,118.8,304.8a216.3,216.3,0,0,0-72.9-76.1,126.4,126.4,0,0,1,25.7,66.1c-17.8-23.2-42.8-40.6-70.5-49.9h0l36,117.2,29.7,96.5,88.4,287.5a248.1,248.1,0,0,1-6.4,155.8l0.8,0.3c47.5,13.8,136.8,46.1,179.8,75.5,26.1,17.8,10.1,55.9-23.2,55.3l-261.5-5.1a246.8,246.8,0,0,1-65.4,28.1h0c2.8,13.3,12.3,21,28.1,21.9,18.2,1,23.7,18.6,24.5,25.5,2.3,21.2-5.8,34.7-27.9,36.9l-91.8,3a53.5,53.5,0,0,1-22.3-4,71.6,71.6,0,0,1-43.1-54.3l-3.5-20.7H1180.9l-5,26.6a71.4,71.4,0,0,1-8.8,23.9c-13.4,22.8-38.9,35.7-65.3,34.1l-84.3-5c-21.4-1.6-31.9-18.9-27.2-40.4,2.5-11.1,15.1-20.3,30.6-21.1,23.3-1.2,30.3-20.2,29.9-43.6l-0.2-3.4q-7-3.7-13.8-7.9L770,2251c-33.3.6-49.7-38.2-23.2-55.3,54-34.9,146.4-69.2,184.5-78.3l0.6-.3a248.9,248.9,0,0,1-12.6-117.5l60-315.5,17.1-89.7,22.2-116.6h0a194.9,194.9,0,0,0-45.8,61.9,195.9,195.9,0,0,1-12.1-91.8c-29,28-43.4,70.4-37.5,110.3-24.9-52.2-30.8-112.6-20.3-169.4s36.8-110.3,72.6-155.7c27.5-34.9,58.2-64.9,83.6-101.2a279.5,279.5,0,0,0,36.4-73.3h0a294.5,294.5,0,0,0,9.2-35.4,240.6,240.6,0,0,1,11.7-40.5l-1.2-.5c-35.7-28.7-68.4-55.4-104.1-84.1-9.7-7.8-20.2-17-21.5-29.4-1.7-17.5,15.7-30.7,32.2-36.6,30.4-10.8,64.3-9.4,95.3-.4a291.9,291.9,0,0,1,85.2,40.3l0.3,0.4a240.6,240.6,0,0,1,71.6-34.3l7.7-2.8c-7.8-12.3-20.7-26.1-41.9-36,0,0,48-47.3,118.7-5,0,0-13.9-74.7-69.4-76.7,0,0,121.4-43.7,189.4,56,0,0,17-35.7,3.3-51,0,0,76.2,25.4,63.8,109.8l8.6,2.6a240.7,240.7,0,0,1,72.7,30.3l3.4-3.1a291.9,291.9,0,0,1,81.5-47.3c30.1-11.5,63.8-15.8,95-7.7,17,4.4,35.4,16.2,35.2,33.7-0.2,12.5-9.8,22.5-18.9,31.1-33.1,31.6-71.5,64-104.6,95.6Z" fill="none"></path></clipPath><g clip-path="url(#furClipPath)"><path fill="#d1dadf" d="M724.1 562.8h1509.4v1824.09H724.1z"></path><path d="M1670.5 2030.7c6.9 38.6 13.7 77.2 20.6 115.8 4.1 22.7 8 45.3 12 68 9.4 53.2 9.6 54.1 9.4 56.2-9.7 78.6-486.6 140.6-531.1 24-5.6-14.6 3.2-56.8 20.7-141.2 10.5-50.5 18.8-83.4 24-105l5.3-22.9c11-59.5 11.1-103.2 52.7-146.3 21.1-21.9 42.7-29 61.8-52.7 23.9-29.8 28.9-41 44.1-76 6.2-14.2 14.4-28 26.7-37.5s29.3-13.8 43.7-8 22.9 19.1 28.2 33 30.4 62 42.1 75.5c25.9 30 59.6 32.3 82.1 59.2 37.3 44.6 44.9 84.6 55 141.8z" fill="#f7ebda"></path><path d="M918.1 2055s-5.8 99 132.3 198.4l-246 28.9-142.4-48 10.5-40.9zM2030.6 2083.4s-29.2 123.1-133.8 173.1l333.4 4v-80zM1623.3 733.5c0 38.1-20.1 77.4-26.2 109.6-3.3 17.4-5.5 26.4-7.8 33.4-4.7 14.4-7.5 42.1-33.9 63.4-22.7 18.3-41.6 11-57.5 36-11.1 17.6-6.4 19-19.8 53.7-7.3 18.9-11.9 27.3-24 35-16.2 10.4-38.3 9.3-54 1-18.9-10-26.9-26.4-32-39-8.1-19.8-25.7-45.6-34-51.7-18.1-13.2-33.4-9.2-48.7-14.1-29.2-9.3-41.9-46-51.3-73.2-13.4-38.6-29.5-76.1-26-96-6.3-24.6 6.3-46.1 0-70.6l82.7-97.3 63.3-42.7h101.3l131.4 72.7zM2089.4 1860.9c-25.1 17.9-59.6 13.8-89.7 7.3-33.3-7.2-66.5-17.7-94.6-36.9s-50.9-48-57.2-81.5c-8.6-45.6 13.1-96.4-8.9-137.2-9.5-17.7-26-30.5-37-47.4-20.4-31.5-18.5-73.4-4.4-108.2 12-29.6 35.2-43.7 56.8-64.9a49 49 0 0 1 34-14c45-.2 143.3 20.4 173.8 197.3 40 232.1 60.4 261.9 27.2 285.5zM857.3 1781.4c11.7 88.2 118.5 127.4 183.4 66.5l2.7-2.6c43.4-42.4 64.2-109 45-166.5-8.5-25.3-24.3-50-20.6-76.5 3-21.5 18.6-39.5 22.8-60.8 6.5-32.7-15.2-60.3-40-82.6 0 0-43.2-62.6-153.9-43.3-73.5 12.7-58 225.1-39.4 365.8z" fill="#44e192"></path><path d="M1050.7 2271.4c4.6-13.4-6.5-30.1 2.2-41.3 2.9-3.8 7.5-5.9 11.5-8.5 10.7-6.8 18.1-17.7 27.5-26.2s23-14.9 34.7-9.9c8.3 3.5 13.4 11.7 19.1 18.6a85 85 0 0 0 28.8 22.3c5.3 2.5 11.5 5.1 13.3 10.7s-.9 9.8-2.4 14.6c-5.5 17.7 1.4 36.4 4.9 54.6 4.6 24-12.8 70-12.8 70l-42.2-3.8-146.4 8.8s-19.6-38.3-12-62.1 32.1-41.9 56.8-39M1711.4 2250.8c9.3 3.8 20.2-.6 27.6-7.3s12.6-15.6 19.1-23.2 15.2-14.5 25.3-14.7c13.9-.3 24.7 11.8 32.7 23.2s16.9 24.3 30.5 26.9c2.2 11.6 10.7 20.9 19.7 28.5s19 14.4 25.8 24 10.1 23 4 33.1c-7.7 12.7-25.2 14.1-40.1 14.1h-47.6c-21.4 0-43.8-.3-62.7-10.3s-32.8-33.1-25-53.1" fill="#44e192"></path></g></g><g id="shadow" style="mix-blend-mode:multiply"><defs><clipPath id="shadowClipPath"><path d="M1717.4,967.2a241.5,241.5,0,0,1,13.7,36.8l16.7,65.1c7.6,32.4,19.5,65.2,43.6,88.3s53.4,39.9,79.7,60.6c90,71,134.4,191.2,118.8,304.8a216.3,216.3,0,0,0-72.9-76.1,126.4,126.4,0,0,1,25.7,66.1c-17.8-23.2-42.8-40.6-70.5-49.9h0l36,117.2,29.7,96.5,88.4,287.5a248.1,248.1,0,0,1-6.4,155.8l0.8,0.3c47.5,13.8,136.8,46.1,179.8,75.5,26.1,17.8,10.1,55.9-23.2,55.3l-261.5-5.1a246.8,246.8,0,0,1-65.4,28.1h0c2.8,13.3,12.3,21,28.1,21.9,18.2,1,23.7,18.6,24.5,25.5,2.3,21.2-5.8,34.7-27.9,36.9l-91.8,3a53.5,53.5,0,0,1-22.3-4,71.6,71.6,0,0,1-43.1-54.3l-3.5-20.7H1180.9l-5,26.6a71.4,71.4,0,0,1-8.8,23.9c-13.4,22.8-38.9,35.7-65.3,34.1l-84.3-5c-21.4-1.6-31.9-18.9-27.2-40.4,2.5-11.1,15.1-20.3,30.6-21.1,23.3-1.2,30.3-20.2,29.9-43.6l-0.2-3.4q-7-3.7-13.8-7.9L770,2251c-33.3.6-49.7-38.2-23.2-55.3,54-34.9,146.4-69.2,184.5-78.3l0.6-.3a248.9,248.9,0,0,1-12.6-117.5l60-315.5,17.1-89.7,22.2-116.6h0a194.9,194.9,0,0,0-45.8,61.9,195.9,195.9,0,0,1-12.1-91.8c-29,28-43.4,70.4-37.5,110.3-24.9-52.2-30.8-112.6-20.3-169.4s36.8-110.3,72.6-155.7c27.5-34.9,58.2-64.9,83.6-101.2a279.5,279.5,0,0,0,36.4-73.3h0a294.5,294.5,0,0,0,9.2-35.4,240.6,240.6,0,0,1,11.7-40.5l-1.2-.5c-35.7-28.7-68.4-55.4-104.1-84.1-9.7-7.8-20.2-17-21.5-29.4-1.7-17.5,15.7-30.7,32.2-36.6,30.4-10.8,64.3-9.4,95.3-.4a291.9,291.9,0,0,1,85.2,40.3l0.3,0.4a240.6,240.6,0,0,1,71.6-34.3l7.7-2.8c-7.8-12.3-20.7-26.1-41.9-36,0,0,48-47.3,118.7-5,0,0-13.9-74.7-69.4-76.7,0,0,121.4-43.7,189.4,56,0,0,13-40.7-.7-56,0,0,80.2,30.4,67.8,114.8l8.6,2.6a240.7,240.7,0,0,1,72.7,30.3l3.4-3.1a291.9,291.9,0,0,1,81.5-47.3c30.1-11.5,63.8-15.8,95-7.7,17,4.4,35.4,16.2,35.2,33.7-0.2,12.5-9.8,22.5-18.9,31.1-33.1,31.6-71.5,64-104.6,95.6Z" fill="none"></path></clipPath><linearGradient id="shadowGradient" x1="1180.91" y1="2153.98" x2="1714.46" y2="2153.98" gradientUnits="userSpaceOnUse"><stop offset="0" stop-color="gray"></stop><stop offset=".27" stop-color="#7d7d7d"></stop><stop offset=".46" stop-color="#747474"></stop><stop offset=".64" stop-color="#646464"></stop><stop offset=".8" stop-color="#4d4d4d"></stop><stop offset=".95" stop-color="#303030"></stop><stop offset="1" stop-color="#242424"></stop></linearGradient><linearGradient id="shadowGradient2" x1="1698.67" y1="781.55" x2="1698.67" y2="918.52" gradientTransform="matrix(-.98 .19 .19 .98 2599.64 -240.56)" gradientUnits="userSpaceOnUse"><stop offset="0" stop-color="gray"></stop><stop offset=".14" stop-color="#797979"></stop><stop offset=".35" stop-color="#646464"></stop><stop offset=".6" stop-color="#434343"></stop><stop offset=".89" stop-color="#141414"></stop><stop offset="1"></stop></linearGradient><linearGradient id="shadowGradient3" x1="967.21" y1="1454.12" x2="967.21" y2="2254.41" href="#shadowGradient" xlink:href="#shadowGradient"></linearGradient><linearGradient id="shadowGradient4" x1="1971.82" y1="1970.17" x2="1971.82" y2="2305.13" href="#shadowGradient" xlink:href="#shadowGradient"></linearGradient><linearGradient id="shadowGradient5" x1="712.25" y1="955.89" x2="712.25" y2="1092.86" gradientTransform="rotate(8.1 1951.22123894 7715.31858407)" href="#shadowGradient2" xlink:href="#shadowGradient2"></linearGradient><linearGradient id="shadowGradient6" x1="1085.95" y1="963.75" x2="1293.19" y2="963.75" href="#shadowGradient" xlink:href="#shadowGradient"></linearGradient><linearGradient id="shadowGradient7" x1="969.11" y1="1470.94" x2="1062.29" y2="1470.94" href="#shadowGradient" xlink:href="#shadowGradient"></linearGradient><linearGradient id="shadowGradient8" x1="912.44" y1="1442.16" x2="989.13" y2="1442.16" href="#shadowGradient" xlink:href="#shadowGradient"></linearGradient><linearGradient id="shadowGradient9" x1="1296.49" y1="775.18" x2="1404.91" y2="775.18" href="#shadowGradient" xlink:href="#shadowGradient"></linearGradient><linearGradient id="shadowGradient10" x1="1474.19" y1="771.29" x2="1513.42" y2="771.29" href="#shadowGradient" xlink:href="#shadowGradient"></linearGradient><linearGradient id="shadowGradient11" x1="1235.56" y1="826.93" x2="1306.12" y2="826.93" href="#shadowGradient" xlink:href="#shadowGradient"></linearGradient></defs><path fill="none" d="M1.8 0H3001.8V3000H1.8z"></path><g clip-path="url(#shadowClipPath)"><path d="M1213.2,2110.7c-22.2,91.8,60.8,117.5,83.2,119.2,41.2,3.1,203.6,5.6,287.7-7.9,43.8-7,109.2-65.4,87.3-196.3l43,256.8H1180.9Z" opacity=".2" fill="url(#shadowGradient)" style="mix-blend-mode:multiply"></path><path d="M1050.7,1454.1s0.1,2.1.4,5.9a840.4,840.4,0,0,1-6.6,161.1c-17.7,128.4-31.5,243.2-39.3,305.8a909.6,909.6,0,0,0-6.8,98.4v3.4c23.5,26,47.6,88.8,52.6,176.8l1.3,49s-31.3-.8-81-0.8c-62,0-110.8-111.7-79.2-278.2,28.4-149.5,80.7-435.8,80.7-435.8S995.5,1484.1,1050.7,1454.1Z" opacity=".2" fill="url(#shadowGradient3)" style="mix-blend-mode:multiply"></path><path d="M1854.3,2157.4s29.9-91.4,66.3-124.9c-39.4,75,14.1,92.7,28.1,87.7,53.7-19.2,75-66.7,79.2-150l65.3,116.3s-55,256-204,214l-38.7-18.1Z" opacity=".2" fill="url(#shadowGradient4)" style="mix-blend-mode:multiply"></path><path d="M1173.5,887s-88.1-44.3-139.7-28.2c-25,7.8-32,21.9-30.2,37.8,10.8,12.7,29.8,13.9,40.1,29.4,25.8,26.5,71.4,56.2,71.4,56.2l23.8-47.8Z" opacity=".4" fill="url(#shadowGradient2)" style="mix-blend-mode:multiply"></path><path d="M1651.1,875.6s86-48.2,138.3-34.4c25.3,6.7,32.9,20.4,31.9,36.4-10.2,13.1-29.2,15.3-38.7,31.2-24.6,27.7-68.8,59.4-68.8,59.4l-26-46.6Z" opacity=".4" fill="url(#shadowGradient5)" style="mix-blend-mode:multiply"></path><path d="M1293.2,863.8s-138.6,62.4-207.2,228.5c0,0,22.2-217.5,195.8-257.1Z" opacity=".2" fill="url(#shadowGradient6)" style="mix-blend-mode:multiply"></path><path d="M969.1,1536.9c4.2-40.3,20.5-67.8,47.6-97.8,7.3-8,45.5-34.1,45.5-34.1s-3.4,39.7-9,47.6c-7.8,11.2-21.1,13.1-32.8,20.2s-17.7,20.8-26.3,31.3" opacity=".2" fill="url(#shadowGradient7)" style="mix-blend-mode:multiply"></path><path d="M919.5,1556.8c-7.4-38.7-10.4-78.8-2.2-117.4s39.7-89,71.8-111.9c-24.5,65.1-25.7,91.7-34.5,133.2" opacity=".2" fill="url(#shadowGradient8)" style="mix-blend-mode:multiply"></path><path d="M1296.5,714.6c31.1-.1,60.6,17.5,79.5,42.3,16.2,21.3,25.1,47.3,28.9,73.9a4.3,4.3,0,0,1-7.3,3.6c-7-7.3-14.7-14.9-23.1-21.1a97.9,97.9,0,0,1-27-30.4,2.4,2.4,0,0,0-1.9-1.3c-2.1-.1-0.2,2.8.2,1.5" opacity=".2" fill="url(#shadowGradient9)" style="mix-blend-mode:multiply"></path><path d="M1474.2,743.5a212.7,212.7,0,0,1,7.4,81.7,3.3,3.3,0,0,0,6.1,2.2c7-10.6,13.8-20.8,19.4-32.2a59.9,59.9,0,0,0-29.2-81.4" opacity=".2" fill="url(#shadowGradient10)" style="mix-blend-mode:multiply"></path><path d="M1235.6,789.8c18.1-4,38.2-.6,52.6,11.1s21.8,32.2,16.1,49.8c-2.1,6.6-6.6,13.1-13.3,14.9-7.4-16.8-11-37.8-27.4-46.2" opacity=".2" fill="url(#shadowGradient11)" style="mix-blend-mode:multiply"></path></g></g><g id="highlight" style="mix-blend-mode:overlay"><defs><clipPath id="highlightClipPath"><path d="M1717.4,967.2a241.5,241.5,0,0,1,13.7,36.8l16.7,65.1c7.6,32.4,19.5,65.2,43.6,88.3s53.4,39.9,79.7,60.6c90,71,134.4,191.2,118.8,304.8a216.3,216.3,0,0,0-72.9-76.1,126.4,126.4,0,0,1,25.7,66.1c-17.8-23.2-42.8-40.6-70.5-49.9h0l36,117.2,29.7,96.5,88.4,287.5a248.1,248.1,0,0,1-6.4,155.8l0.8,0.3c47.5,13.8,136.8,46.1,179.8,75.5,26.1,17.8,10.1,55.9-23.2,55.3l-261.5-5.1a246.8,246.8,0,0,1-65.4,28.1h0c2.8,13.3,12.3,21,28.1,21.9,18.2,1,23.7,18.6,24.5,25.5,2.3,21.2-5.8,34.7-27.9,36.9l-91.8,3a53.5,53.5,0,0,1-22.3-4,71.6,71.6,0,0,1-43.1-54.3l-3.5-20.7H1180.9l-5,26.6a71.4,71.4,0,0,1-8.8,23.9c-13.4,22.8-38.9,35.7-65.3,34.1l-84.3-5c-21.4-1.6-31.9-18.9-27.2-40.4,2.5-11.1,15.1-20.3,30.6-21.1,23.3-1.2,30.3-20.2,29.9-43.6l-0.2-3.4q-7-3.7-13.8-7.9L770,2251c-33.3.6-49.7-38.2-23.2-55.3,54-34.9,146.4-69.2,184.5-78.3l0.6-.3a248.9,248.9,0,0,1-12.6-117.5l60-315.5,17.1-89.7,22.2-116.6h0a194.9,194.9,0,0,0-45.8,61.9,195.9,195.9,0,0,1-12.1-91.8c-29,28-43.4,70.4-37.5,110.3-24.9-52.2-30.8-112.6-20.3-169.4s36.8-110.3,72.6-155.7c27.5-34.9,58.2-64.9,83.6-101.2a279.5,279.5,0,0,0,36.4-73.3h0a294.5,294.5,0,0,0,9.2-35.4,240.6,240.6,0,0,1,11.7-40.5l-1.2-.5c-35.7-28.7-68.4-55.4-104.1-84.1-9.7-7.8-20.2-17-21.5-29.4-1.7-17.5,15.7-30.7,32.2-36.6,30.4-10.8,64.3-9.4,95.3-.4a291.9,291.9,0,0,1,85.2,40.3l0.3,0.4a240.6,240.6,0,0,1,71.6-34.3l7.7-2.8c-7.8-12.3-20.7-26.1-41.9-36,0,0,48-47.3,118.7-5,0,0-13.9-74.7-69.4-76.7,0,0,121.4-43.7,189.4,56,0,0,13-40.7-.7-56,0,0,80.2,30.4,67.8,114.8l8.6,2.6a240.7,240.7,0,0,1,72.7,30.3l3.4-3.1a291.9,291.9,0,0,1,81.5-47.3c30.1-11.5,63.8-15.8,95-7.7,17,4.4,35.4,16.2,35.2,33.7-0.2,12.5-9.8,22.5-18.9,31.1-33.1,31.6-71.5,64-104.6,95.6Z" fill="none"></path></clipPath><linearGradient id="highlightGradient" x1="1982.83" y1="2256.39" x2="1982.83" y2="1456.14" gradientUnits="userSpaceOnUse"><stop offset="0" stop-color="#fff" stop-opacity="0"></stop><stop offset=".72" stop-color="#fff"></stop></linearGradient><linearGradient id="highlightGradient2" x1="1676.83" y1="1173.88" x2="1676.83" y2="834.22" href="#highlightGradient" xlink:href="#highlightGradient"></linearGradient><linearGradient id="highlightGradient3" x1="908.88" y1="1853.92" x2="1039" y2="1853.92" href="#highlightGradient" xlink:href="#highlightGradient"></linearGradient><linearGradient id="highlightGradient4" x1="2116.32" y1="2248.97" x2="2116.32" y2="2113.28" href="#highlightGradient" xlink:href="#highlightGradient"></linearGradient><linearGradient id="highlightGradient5" x1="1044.74" y1="2253.08" x2="1044.74" y2="2117.39" gradientTransform="matrix(-1 0 0 1 1878.82 0)" href="#highlightGradient" xlink:href="#highlightGradient"></linearGradient><linearGradient id="highlightGradient6" x1="1793.84" y1="905.71" x2="1793.84" y2="719.86" gradientTransform="rotate(-43.1 1804.48754992 883.27524864)" href="#highlightGradient" xlink:href="#highlightGradient"></linearGradient><linearGradient id="highlightGradient7" x1="1388.35" y1="547.46" x2="1388.35" y2="361.61" gradientTransform="matrix(-.7 -.71 -.71 .7 2379.32 1527.44)" href="#highlightGradient" xlink:href="#highlightGradient"></linearGradient><linearGradient id="highlightGradient8" x1="1791.24" y1="1299.2" x2="2064.4" y2="1299.2" href="#highlightGradient" xlink:href="#highlightGradient"></linearGradient><linearGradient id="highlightGradient9" x1="1854.92" y1="1450.16" x2="1941.81" y2="1450.16" href="#highlightGradient" xlink:href="#highlightGradient"></linearGradient></defs><g clip-path="url(#highlightClipPath)" opacity=".3"><path d="M1886.6,1468.5c56.9,249.1,235.5,405.7,252.9,497.1,21.8,114.7-96.5,75.8-117.2,147.7-9.5,32.9-72.5,107.6-72.5,107.6l-61.1,35.5s127.4-81.3,81.2-286c-19.5-86.7-79-277.4-111.6-379.9q-18.6-58.4-31.3-118.3-1.6-7.5-3.5-16" fill="url(#highlightGradient)" style="mix-blend-mode:overlay"></path><path d="M1682.7,915.9c-20.7-36.8-78.6-66.4-129.5-81.7l-9,14.9s58.8,19.7,82.5,49.4l4.1,5c7.9,9.3,40.8,52.9,96.8,193.7,12.2,30.8,56.9,51.2,79.7,75.2C1828,1194.5,1701.7,949.7,1682.7,915.9Z" fill="url(#highlightGradient2)"></path><path d="M1039,1462.1l-12.2,8.1-25,16.7s-141,524.6-75.7,624c0,0,42.1,98.3,110.7,134.9-66.7-90.9-116.7-144.9-96.7-256.9S1039,1462.1,1039,1462.1Z" fill="url(#highlightGradient3)"></path><path d="M1999.2,2162.4s113.2,21.1,98.4,83.6l92.6,3,43.3-6.5-4.3-68.5-206.8-60.7Z" fill="url(#highlightGradient4)"></path><path d="M951.2,2166.5s-113.2,21.1-98.4,83.6l-92.6,3-43.3-6.5,4.3-68.5,206.8-60.7Z" opacity=".7" fill="url(#highlightGradient5)"></path><path d="M1632.5,868.9s75-44.5,115.2-47c43.6-2.6,70.4-2,85.9,39,11.7,31,36.1-11.5,36.1-11.5l-52.5-90-204,80Z" fill="url(#highlightGradient6)"></path><path d="M1187.5,883.7s-61-40.2-101-44.3c-43.4-4.5-70.2-5-87.5,35.3-13,30.4-35.6-13.1-35.6-13.1l56.3-87.7,200.4,88.7Z" fill="url(#highlightGradient7)"></path><path d="M1791.2,1167.2c106.3,83.4,177.8,209.7,194.8,343.8,1,8.1,3.2,17.8,10.9,20.2s14.1-3.7,18.9-9.4c19.4-23.4,30-52.9,37.1-82.4,16.5-68.3,16-141.6-8-207.7s-72.5-124.2-136.4-153.5c-19.8-9.1-42.7-15.4-63.2-8" fill="url(#highlightGradient8)" style="mix-blend-mode:overlay"></path><path d="M1855.7,1407.2a2.5,2.5,0,0,1,3.2-3.9c5,3.3,9.9,6.6,15,9.6,17.1,10.2,34.6,20.6,47.5,35.8,5,5.9,28.5,42.7,17.5,48.1s-29.3-32.2-34.7-37.6C1888.1,1443.3,1872.8,1423.7,1855.7,1407.2Z" fill="url(#highlightGradient9)" style="mix-blend-mode:overlay"></path></g></g><g id="bodyMask"><path d="M1717.4,967.2a241.5,241.5,0,0,1,13.7,36.8l16.7,65.1c7.6,32.4,19.5,65.2,43.6,88.3s53.4,39.9,79.7,60.6c90,71,134.4,191.2,118.8,304.8a216.3,216.3,0,0,0-72.9-76.1,126.4,126.4,0,0,1,25.7,66.1c-17.8-23.2-42.8-40.6-70.5-49.9h0l36,117.2,29.7,96.5,88.4,287.5a248.1,248.1,0,0,1-6.4,155.8l0.8,0.3c47.5,13.8,136.8,46.1,179.8,75.5,26.1,17.8,10.1,55.9-23.2,55.3l-261.5-5.1a246.8,246.8,0,0,1-65.4,28.1h0c2.8,13.3,12.3,21,28.1,21.9,18.2,1,23.7,18.6,24.5,25.5,2.3,21.2-5.8,34.7-27.9,36.9l-91.8,3a53.5,53.5,0,0,1-22.3-4,71.6,71.6,0,0,1-43.1-54.3l-3.5-20.7H1180.9l-5,26.6a71.4,71.4,0,0,1-8.8,23.9c-13.4,22.8-38.9,35.7-65.3,34.1l-84.3-5c-21.4-1.6-31.9-18.9-27.2-40.4,2.5-11.1,15.1-20.3,30.6-21.1,23.3-1.2,30.3-20.2,29.9-43.6l-0.2-3.4q-7-3.7-13.8-7.9L770,2251c-33.3.6-49.7-38.2-23.2-55.3,54-34.9,146.4-69.2,184.5-78.3l0.6-.3a248.9,248.9,0,0,1-12.6-117.5l60-315.5,17.1-89.7,22.2-116.6h0a194.9,194.9,0,0,0-45.8,61.9,195.9,195.9,0,0,1-12.1-91.8c-29,28-43.4,70.4-37.5,110.3-24.9-52.2-30.8-112.6-20.3-169.4s36.8-110.3,72.6-155.7c27.5-34.9,58.2-64.9,83.6-101.2a279.5,279.5,0,0,0,36.4-73.3h0a294.5,294.5,0,0,0,9.2-35.4,240.6,240.6,0,0,1,11.7-40.5l-1.2-.5c-35.7-28.7-68.4-55.4-104.1-84.1-9.7-7.8-20.2-17-21.5-29.4-1.7-17.5,15.7-30.7,32.2-36.6,30.4-10.8,64.3-9.4,95.3-.4a291.9,291.9,0,0,1,85.2,40.3l0.3,0.4a240.6,240.6,0,0,1,71.6-34.3l7.7-2.8c-7.8-12.3-20.7-26.1-41.9-36,0,0,48-47.3,118.7-5,0,0-13.9-74.7-69.4-76.7,0,0,121.4-43.7,189.4,56,0,0,17-35.7,3.3-51,0,0,76.2,25.4,63.8,109.8l8.6,2.6a240.7,240.7,0,0,1,72.7,30.3l3.4-3.1a291.9,291.9,0,0,1,81.5-47.3c30.1-11.5,63.8-15.8,95-7.7,17,4.4,35.4,16.2,35.2,33.7-0.2,12.5-9.8,22.5-18.9,31.1-33.1,31.6-71.5,64-104.6,95.6Z" fill="none"></path></g><g id="body"><path d="M1850.5 2273.9c130.6-34.8 214.8-171.9 175.8-309.9l-153.4-498.9M1180.9 2282.4L1714.5 2282.4M1016.8 1486.8l-97.5 512.7c-14.2 107.9 42.3 207 131.5 254.1M1018.5 1477.8L1016.8 1486.8" fill="none" stroke="#31323d" stroke-linecap="round" stroke-miterlimit="10" stroke-width="12.5"></path><path d="M1228.6,2040.8c-1.7,15.3-3.8,30.4-6,45.6l-3.5,22.7-3.8,22.6c-2.6,15.1-5.4,30.1-8.1,45.2l-8.3,45.1-16.6,90.3a76.3,76.3,0,0,1-3.5,12.1,77.5,77.5,0,0,1-5.4,11.4,75.5,75.5,0,0,1-16,19.4,78.7,78.7,0,0,1-45.9,18.8l-6.3.2h-6.1l-11.5-.7-22.9-1.3-45.8-2.8h-4.7l-1.8-.3a44.1,44.1,0,0,1-6.7-1.7,35.7,35.7,0,0,1-12.3-7.3,34.7,34.7,0,0,1-8.3-11.7,40.4,40.4,0,0,1-3.1-13.5,50.7,50.7,0,0,1,1-13.2l0.2-.8v-1.7l0.3-1.1a26.9,26.9,0,0,1,1.5-3.6,30.2,30.2,0,0,1,4.1-6.2,37.9,37.9,0,0,1,11-8.8,45.9,45.9,0,0,1,12.7-4.5,49,49,0,0,1,6.6-.9l2.7-.2,2.1-.3a22,22,0,0,0,4.3-1.2,18.5,18.5,0,0,0,3.8-1.9c4.6-3,7.7-8.4,9.4-14.8a70.5,70.5,0,0,0,1.8-20.8l-0.9-22.9-1.9-45.9c-0.6-15.3-1.3-30.6-1.8-45.9v0.5c-0.6-5-1.3-9.9-2-14.9-0.4-2.5-.8-4.9-1.2-7.4s-0.9-4.9-1.4-7.3-1-4.9-1.6-7.3-1.2-4.8-1.8-7.2q-1.9-7.2-4.4-14.2c-0.8-2.3-1.7-4.6-2.6-6.9s-1.8-4.6-2.9-6.8l-1.5-3.4-1.6-3.3-1.7-3.3-1.8-3.3-1.8-3.2-1.9-3.2-4-6.3c-1.4-2.1-2.8-4.1-4.3-6.2l-2.2-3-2.3-3h0a2.2,2.2,0,0,1,3.4-2.9l5.4,5.6q2.6,2.9,5.1,5.9c1.7,2,3.3,4,4.8,6.1l2.3,3.2,2.2,3.2c1.5,2.2,2.9,4.3,4.2,6.6l2,3.4,1.9,3.4q1.9,3.4,3.5,7c1.1,2.4,2.2,4.7,3.2,7.2q3,7.2,5.4,14.7c1.6,5,3,10,4.2,15q0.9,3.8,1.7,7.6c0.5,2.5,1.1,5.1,1.5,7.6,0.9,5.1,1.7,10.2,2.4,15.3v0.5c0.9,15.3,1.6,30.6,2.4,45.8l2.3,45.8,1.1,22.9a94.4,94.4,0,0,1-.1,12.3,71.8,71.8,0,0,1-1.9,12.5,54.5,54.5,0,0,1-2,6.3,42.8,42.8,0,0,1-3.1,6.2,33.3,33.3,0,0,1-9.8,10.4,35.1,35.1,0,0,1-13.2,5.3l-3.5.5-3,.2a35,35,0,0,0-4.7.6,31.9,31.9,0,0,0-8.8,3.2,23.9,23.9,0,0,0-6.9,5.5,16.1,16.1,0,0,0-2.2,3.3,13,13,0,0,0-1.2,3.7,36.6,36.6,0,0,0-.7,9.6,26.2,26.2,0,0,0,2,8.7,20.4,20.4,0,0,0,4.9,6.9,21.4,21.4,0,0,0,7.3,4.3,30.1,30.1,0,0,0,4.4,1.1l1,0.2h3.9l45.8,2.7,22.9,1.4,11.5,0.7h10.5a64.5,64.5,0,0,0,37.6-15.2,61.4,61.4,0,0,0,13.1-15.7,65,65,0,0,0,7.4-19.2l17.4-90.1,8.7-45.1c2.9-15,5.8-30,8.8-45l4.7-22.5,5-22.4c3.4-14.9,7-29.8,11-44.6A2.2,2.2,0,0,1,1228.6,2040.8Z" fill="#31323d"></path><path d="M1095.2 2319.6h-.5l-1.7.2a18.6 18.6 0 0 0-5.8 2 22.5 22.5 0 0 0-6.7 5.5 30.2 30.2 0 0 0-2.9 4 38.9 38.9 0 0 0-2.4 4.6l-.5 1.2-.5 1.2-.5 1.2-.4 1.3c-.5 1.7-.9 3.4-1.3 5l-.5 2.4c-.2.8-.3 1.6-.4 2.4s-.4 3-.6 4.4-.2 2.6-.3 3.7-.1 2.1-.2 2.9v2.7a6.3 6.3 0 1 1-12.5-.6 6.9 6.9 0 0 1 .1-.8l.5-2.7c.2-.9.3-1.9.6-3.1s.5-2.6.9-4.1.8-3.1 1.3-4.8l.8-2.6.9-2.7c.7-1.8 1.4-3.7 2.3-5.5l.6-1.4.7-1.4.7-1.4.8-1.4a46.9 46.9 0 0 1 3.6-5.2 37.5 37.5 0 0 1 4.2-4.5 28.8 28.8 0 0 1 9.4-5.8 23.9 23.9 0 0 1 7.7-1.5h3.1A2.2 2.2 0 1 1 1095.2 2319.6zM1052.7 2314.9h-.6l-1.6.4-2.5.9-.7.3-.8.4-1.6.9-1.7 1.1-1.7 1.3-.9.7-.8.8-1.6 1.7-1.5 2-.7 1-.6 1.1-1.3 2.2-1.1 2.4c-.3.8-.7 1.6-1 2.4l-.8 2.5-.8 2.4-.6 2.5a42.3 42.3 0 0 0-1 4.7l-.6 4.3a35.4 35.4 0 0 0-.3 3.7l-.2 2.8-.2 2.5v.4a6.3 6.3 0 1 1-12.5-.8 6.9 6.9 0 0 1 .1-.8l.5-2.7.6-3.1c.3-1.2.4-2.5.9-4l1.3-4.7a51.3 51.3 0 0 1 1.8-5.2l1-2.7 1.3-2.7 1.3-2.7c.5-.9 1.1-1.8 1.6-2.7l1.7-2.6 1.9-2.4.9-1.2 1.1-1.1 2.1-2.1 2.2-1.8 1.1-.9 1.2-.7 2.2-1.4 2.2-1.1 2.1-.8 1-.4 1-.3a26.5 26.5 0 0 1 3.2-.7l2.2-.2h.8A2.2 2.2 0 1 1 1052.7 2314.9zM1673.7 2025.2l2.2 9.4c1.4 6.1 3.4 15.1 5.8 26.6 1.2 5.7 2.5 12.1 3.9 19l4.4 22.5 4.8 25.6 5 28.4 23.3 135.3c1.1 6.1 2 12.8 3.6 17.8a63.3 63.3 0 0 0 7.2 15.7 65.1 65.1 0 0 0 25.9 23.4l4.1 1.9 1.1.4 1 .4 2 .7a45.4 45.4 0 0 0 8.4 1.7l4.3.3h4.6l10-.3 40.1-1.4 39.4-1.2 2.5-.3 1.2-.2.9-.2 1.9-.4 1.9-.6a21.7 21.7 0 0 0 6.5-3.5 17 17 0 0 0 4.3-5.4c.2-.6.6-1.1.7-1.7l.6-1.8a30.4 30.4 0 0 0 .8-3.9 37.8 37.8 0 0 0 .4-4.1c0-.7 0-1.4 0-2.1s0-1.4-.1-2.2l-.2-2.2v-.3a.3.3 0 1 1 0-.1v-1.6l-.2-.8-.2-.9c-.1-.6-.4-1.3-.6-1.9-1.7-5-4.7-9.3-8.4-11.7a17.3 17.3 0 0 0-6.4-2.3l-1.8-.2-2.6-.2h-1.2l-1.5-.2-2.9-.5a39.5 39.5 0 0 1-10.9-4.2 30.1 30.1 0 0 1-9.1-8 34 34 0 0 1-5.3-10.4 47.2 47.2 0 0 1-1.9-10.7c-.1-.9-.1-1.7-.1-2.6s0-1.8 0-2.6v-4.6l.2-9.1.8-35.4.2-8.6v-3.7c0-.8 0-.4 0-.6v-.3l.3-4.2.3-4.2c.1-1.4.2-2.7.4-4.2l1-8.4a250.4 250.4 0 0 1 6.4-31.5 277 277 0 0 1 9.1-28l2.7-6.4c.9-2.1 1.7-4.2 2.7-6.2l2.8-5.9c.9-1.9 1.8-3.9 2.8-5.7l2.9-5.4 1.4-2.6 1.5-2.5 2.9-4.9c.9-1.6 1.8-3.2 2.8-4.7l5.6-8.7 5.4-7.7 2.6-3.5 2.5-3.2c1.6-2.1 3.1-4.1 4.6-5.8l4.1-4.9 3.5-4 6.6-7.1a2.2 2.2 0 0 1 3.4 2.8h0l-5.6 7.8c-3.6 5.1-8.8 12.6-14.9 22.5l-4.7 7.8-4.8 8.8c-.9 1.5-1.7 3.1-2.5 4.7l-2.5 4.9-1.3 2.5-1.2 2.6-2.5 5.4a290.9 290.9 0 0 0-17.7 50.6l-.9 3.6-.4 1.8-.4 1.8-1.5 7.4-.4 1.9-.3 1.9-.6 3.8-.6 3.9-.3 1.9-.2 1.9-.9 7.8c-.2 1.3-.2 2.7-.3 4.1l-.3 4.2-.3 4.2v.3c0-.1 0 .5 0-.1v12.3l-.5 35.4v13.7c0 .8 0 1.4 0 2.1s0 1.4.1 2a33.7 33.7 0 0 0 1.4 7.5 20.3 20.3 0 0 0 3.2 6.2c2.7 3.6 6.9 5.8 12 6.9l1.8.3.9.2h1.2l2.2.2 3 .3a31.3 31.3 0 0 1 11.7 4.2 31.8 31.8 0 0 1 9 8.5 40.3 40.3 0 0 1 5.4 10.5c.3.9.6 1.8.8 2.8l.4 1.4.3 1.6v2.9l.2 2.7c.1.9.1 1.8.1 2.8s.1 1.8 0 2.8a52 52 0 0 1-.5 5.7 44.4 44.4 0 0 1-1.2 5.8l-1 2.9c-.3 1-.8 1.9-1.3 2.9a31.3 31.3 0 0 1-7.9 10.1 35.8 35.8 0 0 1-10.9 6l-2.8.9-3 .7-1.5.3-1.3.2-2.5.3h-5.7l-5 .2-10 .4-20.1.7-40.1 1.3-10 .3h-5.4l-5.6-.4a59.7 59.7 0 0 1-11-2.3l-2.7-.9-1.4-.5-1.2-.5-4.9-2.3a79.2 79.2 0 0 1-31.4-28.6 77.2 77.2 0 0 1-8.7-19.2l-.7-2.6-.3-1.3c-.1-.4-.2-.9-.3-1.3l-.5-2.3-.2-1.2v-1.4l-1.5-9.3-22-135.6-4.5-28.5-3.8-25.7-3.2-22.7c-1-7-1.8-13.4-2.5-19.3-1.5-11.6-2.5-20.8-3.2-27.1l-1-9.6A2.2 2.2 0 0 1 1673.7 2025.2z" fill="#31323d"></path><path d="M1783.2 2307.4h3.2a34.8 34.8 0 0 1 8 1.7 33.5 33.5 0 0 1 5.1 2.1 34.2 34.2 0 0 1 5.3 3.3 37.9 37.9 0 0 1 5 4.5c.7.9 1.5 1.7 2.2 2.7l1 1.4 1 1.5a46.8 46.8 0 0 1 3.3 6.1 56.5 56.5 0 0 1 2.4 6.2c.4 1 .6 2 .9 3s.5 2 .7 2.9l.6 2.8.4 2.6c.3 1.7.4 3.2.6 4.6s.3 2.5.3 3.5l.2 3.1a6.3 6.3 0 0 1-12.5.8 6.4 6.4 0 0 1 0-.7v-.3l.2-2.7c.1-.9.1-1.9.1-3.1s.1-2.6 0-4v-2.3l-.2-2.4c-.1-.8-.2-1.7-.3-2.5s-.2-1.8-.4-2.6a47.1 47.1 0 0 0-1.3-5.3 38.1 38.1 0 0 0-2.1-5.2l-.6-1.3-.7-1.2c-.4-.8-1-1.6-1.5-2.3a30.5 30.5 0 0 0-3.5-4.1 29.3 29.3 0 0 0-8-5.5 29.5 29.5 0 0 0-6.6-2.2l-1.9-.3h-.7A2.2 2.2 0 0 1 1783.2 2307.4zM1833.8 2304.2h3.2a34.8 34.8 0 0 1 8 1.7 33.5 33.5 0 0 1 5.1 2.1 34.2 34.2 0 0 1 5.3 3.3 37.9 37.9 0 0 1 5 4.5c.7.9 1.5 1.7 2.2 2.7l1 1.4 1 1.5a46.8 46.8 0 0 1 3.3 6.1 56.6 56.6 0 0 1 2.4 6.2c.4 1 .6 2 .9 3s.5 2 .7 2.9l.6 2.8.4 2.6c.3 1.7.4 3.2.6 4.6s.3 2.5.3 3.5l.2 3.1a6.3 6.3 0 1 1-12.5.1v-.3l.2-2.7c.1-.9.1-1.9.1-3.1s.1-2.6 0-4v-2.3l-.2-2.4c-.1-.8-.2-1.7-.3-2.5s-.2-1.8-.4-2.6a47.1 47.1 0 0 0-1.3-5.3 38 38 0 0 0-2.1-5.2l-.6-1.3-.7-1.2c-.4-.8-1-1.6-1.5-2.3a30.5 30.5 0 0 0-3.5-4.1 29.3 29.3 0 0 0-8-5.5 29.5 29.5 0 0 0-6.6-2.2l-1.9-.3h-.7A2.2 2.2 0 0 1 1833.8 2304.2z" fill="#31323d"></path><path d="M931.3,2117.4c-38.1,9.1-130.4,43.4-184.5,78.3-26.5,17.1-10.1,55.9,23.2,55.3l280.4-5.5" fill="none" stroke="#31323d" stroke-linecap="round" stroke-miterlimit="10" stroke-width="12.5"></path><path d="M840.5 2200.1l-.7.2-2 .6-3.1 1-4 1.5-4.5 2.1a49.4 49.4 0 0 0-4.7 2.8 36 36 0 0 0-4.4 3.5 26.3 26.3 0 0 0-3.7 4.2l-.8 1.1-.7 1.2a21.4 21.4 0 0 0-1.1 2.4c-.2.4-.3.8-.4 1.2a8.9 8.9 0 0 0-.3 1.2 18.1 18.1 0 0 0-.4 2.4v1.2c0 .4 0 .8 0 1.2v1.2c0 .4.1.8.1 1.2a15.6 15.6 0 0 0 .3 2.2c.2.7.3 1.4.5 2.1a36.6 36.6 0 0 0 1.2 3.6 29.8 29.8 0 0 0 1.2 2.8l1.2 2.4.2.3a6.3 6.3 0 0 1-11.3 5.5l-.3-.7-1.1-3.1c-.4-1-.7-2.2-1.1-3.7a48 48 0 0 1-1-4.9c-.1-.9-.2-1.9-.3-2.9a24.9 24.9 0 0 1-.1-3.2c0-.5 0-1.1 0-1.7l.2-1.7c.1-.6.1-1.2.2-1.7l.4-1.8a27.7 27.7 0 0 1 1-3.5 16.1 16.1 0 0 1 .7-1.7l.8-1.7a30.5 30.5 0 0 1 2-3.2l1.1-1.5 1.2-1.4a34.5 34.5 0 0 1 5.4-4.9 43.4 43.4 0 0 1 5.8-3.6 56.1 56.1 0 0 1 5.7-2.6l5.2-1.8 4.4-1.2 3.5-.7 2.3-.3h.8a2.2 2.2 0 0 1 .8 4.4h-.1zM793 2202.1h-.6l-1.7.5a38.1 38.1 0 0 0-5.9 2.5 32.6 32.6 0 0 0-3.6 2.2 29.2 29.2 0 0 0-3.5 2.9 23.5 23.5 0 0 0-2.9 3.7 18.7 18.7 0 0 0-2 4.2 21.2 21.2 0 0 0-.6 2.2c-.1.8-.3 1.5-.3 2.3a24.7 24.7 0 0 0 .1 4.6 34.5 34.5 0 0 0 .8 4.3c.4 1.4.7 2.7 1.2 3.9l.6 1.7.7 1.5.6 1.3.6 1.1 1.1 2.1v.2a6.3 6.3 0 0 1-11.2 5.6l-.3-.8-.9-2.7-.5-1.4-.5-1.7-.5-1.9c-.2-.7-.3-1.4-.5-2.2s-.6-3.3-.8-5.1a44.7 44.7 0 0 1-.2-5.9 34.2 34.2 0 0 1 .8-6.3c.2-1.1.6-2.1.9-3.2a29.7 29.7 0 0 1 1.3-3.1 26.9 26.9 0 0 1 3.6-5.6 31 31 0 0 1 4.5-4.3 35.8 35.8 0 0 1 4.8-3 38.6 38.6 0 0 1 4.6-2 43.3 43.3 0 0 1 7.1-2l2-.3h.8a2.2 2.2 0 0 1 .8 4.4H793z" fill="#31323d"></path><path d="M2020.7,2120.2c47.5,13.8,136.8,46.1,179.8,75.5,26.1,17.8,10.1,55.9-23.2,55.3l-261.6-5.1" fill="none" stroke="#31323d" stroke-linecap="round" stroke-miterlimit="10" stroke-width="12.5"></path><path d="M2107.6 2193.7h.8l2.3.4 3.5.8 4.5 1.4 5.2 2a58.4 58.4 0 0 1 5.6 2.8 45.8 45.8 0 0 1 5.7 3.8 36.7 36.7 0 0 1 5.3 5.1l1.2 1.5 1.1 1.6a31 31 0 0 1 1.9 3.3c.3.6.5 1.2.8 1.7s.5 1.2.7 1.8l.6 1.8.3.9.2.9a26.4 26.4 0 0 1 .6 3.5 25.1 25.1 0 0 1 .2 3.4 42.1 42.1 0 0 1-.4 6.2 50.3 50.3 0 0 1-1 5c-.4 1.5-.7 2.8-1.1 3.7l-1.1 3.2a6.3 6.3 0 0 1-11.8-4.1l.3-.7.2-.3 1.2-2.4c.4-.8.7-1.7 1.2-2.8s.8-2.3 1.2-3.7a31.5 31.5 0 0 0 .8-4.4 15.7 15.7 0 0 0 .1-2.4 16.7 16.7 0 0 0-.1-2.5V2224l-.2-1.3c-.1-.4-.2-.8-.4-1.3a12.8 12.8 0 0 0-.4-1.3 21.8 21.8 0 0 0-1.1-2.5l-.7-1.2-.8-1.2a28.5 28.5 0 0 0-3.7-4.4 38.4 38.4 0 0 0-4.4-3.8 51.5 51.5 0 0 0-4.7-3l-4.5-2.3a66.6 66.6 0 0 0-7.1-2.9l-2-.6-.7-.2h-.1A2.2 2.2 0 0 1 2107.6 2193.7zM2155.1 2195.7h.8l2.1.4a44.7 44.7 0 0 1 7.1 2.4 40.4 40.4 0 0 1 4.5 2.3 38.2 38.2 0 0 1 4.7 3.3 33.1 33.1 0 0 1 4.4 4.5 30 30 0 0 1 4.8 8.8c.4 1.1.6 2.2.9 3.2s.4 2.2.6 3.3.3 2.2.2 3.2.1 2.1 0 3.1l-.2 2.9c-.3 1.8-.5 3.6-.8 5.2l-.5 2.3-.6 2-.5 1.8-.5 1.4-.9 2.7a6.3 6.3 0 0 1-11.8-4.1l.3-.7v-.3l1.1-2.2.6-1.2.6-1.4.7-1.6.6-1.7c.5-1.2.8-2.6 1.2-4l.4-2.2c.2-.7.2-1.5.3-2.3s.1-1.5.1-2.3-.1-1.6-.1-2.4-.2-1.6-.3-2.4a20.2 20.2 0 0 0-.6-2.3 20.6 20.6 0 0 0-2-4.4 25.7 25.7 0 0 0-2.9-3.9 31.5 31.5 0 0 0-3.5-3.2 34.4 34.4 0 0 0-3.6-2.4 39.4 39.4 0 0 0-5.9-2.9l-1.7-.6-.6-.2H2154A2.2 2.2 0 0 1 2155.1 2195.7zM1288.7 864.1l-1.9-4.8-1-2.4-1-2.3-2.3-4.6-2.4-4.4-1.3-2.2-1.3-2.1-1.3-2.1-1.4-2.1c-.9-1.4-1.9-2.7-2.9-4s-2.1-2.6-3.2-3.8l-1.6-1.9-1.7-1.8-3.6-3.5-3.7-3.3-3.9-3.1-2-1.5-2.1-1.4-4.2-2.8-2.1-1.3-2.2-1.3-4.4-2.5-.8-.5a6.1 6.1 0 0 1-2.1-8.3 6.3 6.3 0 0 1 1.1-1.4h0l.9-.9.8-.7 1.7-1.4 3.4-2.6q3.5-2.5 7.1-4.7a101.1 101.1 0 0 1 15.3-7.4 98.2 98.2 0 0 1 33.2-6.6 106 106 0 0 1 33.4 4.7q4 1.2 7.9 2.7t7.7 3.2c2.5 1.1 5 2.4 7.5 3.7l3.6 2 3.6 2.1-9.4 6.5-.3-1.5-.4-1.6-.8-3.2q-.9-3.2-1.9-6.4c-1.4-4.2-2.9-8.4-4.7-12.5a106.9 106.9 0 0 0-13.1-22.8 64.2 64.2 0 0 0-18.7-16.9 50.6 50.6 0 0 0-23.6-6.7h0a6.2 6.2 0 0 1-1.8-12.1l3.4-1.1 3.3-1 6.6-1.7q6.7-1.6 13.4-2.8a217.1 217.1 0 0 1 27.2-3 195.4 195.4 0 0 1 27.4.6 170.2 170.2 0 0 1 27.1 4.7q6.7 1.7 13.2 4c4.3 1.5 8.6 3.3 12.8 5.2s8.3 4 12.3 6.4 7.9 4.8 11.6 7.5c1.9 1.3 3.7 2.8 5.5 4.2s3.6 2.9 5.3 4.4c3.5 3 6.8 6.3 10 9.5s6.2 6.8 9.1 10.4 5.6 7.3 8.2 11.1l-10.8.8 1.2-2.8 1.2-2.9c.8-2 1.4-4 2.1-6a83.6 83.6 0 0 0 2.9-12.1 42.4 42.4 0 0 0 .4-11.6 20.8 20.8 0 0 0-1.2-5 13 13 0 0 0-2.3-3.8h0a6.2 6.2 0 0 1 6.6-10.1h.1l1.5.5 1.3.5 2.6 1 5 2.2c3.3 1.6 6.5 3.3 9.6 5.1a113.6 113.6 0 0 1 17.5 12.9q4.1 3.7 7.8 7.8a95.7 95.7 0 0 1 6.9 8.6 94.1 94.1 0 0 1 10.7 19.3 100.9 100.9 0 0 1 3.5 10.5 98.6 98.6 0 0 1 2.3 10.8 104.1 104.1 0 0 1 1.1 10.9c.2 3.6.1 7.3 0 10.9s-.5 7.2-1 10.8c-.3 1.8-.5 3.6-.9 5.3s-.8 3.5-1.2 5.2a81.7 81.7 0 0 1-3.5 10.1c-.7 1.6-1.5 3.2-2.3 4.8s-1.7 3.1-2.7 4.6a2.6 2.6 0 0 1-4.7-1.5h0c0-1.8.2-3.5.4-5.2s.3-3.4.5-5.1l1.1-9.9c.2-1.6.4-3.3.5-4.9s.2-1.6.3-2.4l.2-2.4c.3-3.2.5-6.5.5-9.7s-.1-6.4-.3-9.6a93.1 93.1 0 0 0-1.3-9.5 84.7 84.7 0 0 0-2.2-9.2 86.9 86.9 0 0 0-3.2-8.9 94 94 0 0 0-4.2-8.5 84.6 84.6 0 0 0-5.1-8 93.8 93.8 0 0 0-5.9-7.4q-3.2-3.6-6.7-6.8c-2.3-2.2-4.8-4.2-7.3-6.2s-5.2-3.8-7.9-5.6-5.5-3.4-8.3-5l-4.3-2.2-2.2-1-1.1-.5-.9-.4 6.7-10.1h0a25.5 25.5 0 0 1 4.6 7.6 33.2 33.2 0 0 1 2 8 54.6 54.6 0 0 1-.5 15.1 96 96 0 0 1-3.4 13.9q-1.1 3.4-2.3 6.7l-1.3 3.3-1.5 3.4a6.2 6.2 0 0 1-10.7 1h-.1c-2.4-3.5-4.9-7-7.6-10.3s-5.5-6.5-8.4-9.6-6-6-9.2-8.8c-1.6-1.4-3.2-2.7-4.9-4.1s-3.3-2.6-5.1-3.8a136.2 136.2 0 0 0-45.8-21.2 157.7 157.7 0 0 0-25.2-4.3 182.9 182.9 0 0 0-25.7-.5 204.7 204.7 0 0 0-25.6 2.9q-6.4 1.1-12.6 2.6l-6.2 1.6-3 .9-2.9.9-1.9-12.1a69.4 69.4 0 0 1 7.7.7 61.3 61.3 0 0 1 7.6 1.6 59.6 59.6 0 0 1 7.3 2.6 61.6 61.6 0 0 1 6.9 3.4 70.1 70.1 0 0 1 12.3 9 85.8 85.8 0 0 1 10.1 11.1 119.3 119.3 0 0 1 14.6 25.4q2.9 6.7 5.1 13.6 1.1 3.5 2.1 7l.9 3.5.4 1.8.4 1.9a6.2 6.2 0 0 1-9.2 6.6h-.1l-3.3-1.9-3.3-1.8-6.8-3.4-7-2.9-7.1-2.5a93.5 93.5 0 0 0-29.5-4.2 85.7 85.7 0 0 0-29 5.8 88.7 88.7 0 0 0-13.4 6.5c-2.1 1.3-4.2 2.6-6.2 4.1l-2.9 2.2-1.4 1.1-.6.6-.5.5-1.8-10.1 5.2 2.3c1.7.9 3.4 1.7 5.1 2.6s3.3 1.9 4.9 3l2.4 1.6 2.3 1.7c1.6 1.1 3 2.4 4.5 3.6s2.9 2.5 4.3 3.9 2.7 2.8 4 4.2l1.9 2.2 1.8 2.3c1.2 1.5 2.3 3.1 3.4 4.7s2.1 3.3 3 4.9l1.4 2.5 1.3 2.6c.8 1.7 1.6 3.5 2.2 5.3s1.2 3.6 1.7 5.5a55.7 55.7 0 0 1 1.2 5.6c.1 1 .3 1.9.4 2.8s.2 1.9.2 2.9a36 36 0 0 1-.1 5.9 2.5 2.5 0 0 1-4.9.6v-.2z" fill="#31323d"></path><path d="M1202.2 872a291.9 291.9 0 0 0-85.2-40.3c-31-9-64.9-10.4-95.3.4-16.5 5.9-33.9 19.1-32.2 36.6 1.2 12.4 11.7 21.6 21.5 29.4 35.7 28.7 68.4 55.4 104.1 84.1M1630.4 862.1a291.9 291.9 0 0 1 81.5-47.3c30.1-11.5 63.8-15.8 95-7.7 17 4.4 35.4 16.2 35.2 33.7-.2 12.5-9.8 22.5-18.9 31.1-33.1 31.6-71.5 64-104.6 95.6" fill="none" stroke="#31323d" stroke-linecap="round" stroke-linejoin="round" stroke-width="12.5"></path><path d="M1054.6 1454.8l-6 4.6-5.8 4.6-5.7 4.7-5.5 4.9-5.4 5-5.2 5.1-5.1 5.2-4.9 5.4-4.7 5.6-4.6 5.7-4.3 5.8-4.2 6-4 6.1-3.8 6.2-3.6 6.3-3.5 6.4-1.3 2.3a5.5 5.5 0 0 1-10.2-2.7h0l-2.1-5.7-1.9-5.7-1.8-5.8-1.6-5.8-1.4-5.9-1.2-5.9-1.1-5.9-.9-6-.7-6-.5-6-.3-6-.2-6v-6l.2-6 .4-6 .6-6 10.6 5.2-5 5.1-4.7 5.4-4.3 5.7-4 6-3.6 6.2-3.3 6.4-2.9 6.6-2.5 6.7-2.1 6.9-1.7 7-1.3 7.1-.9 7.1-.5 7.2v7.2l.4 7.2.8 7.1v.2a6.2 6.2 0 0 1-11.9 3.4 271.4 271.4 0 0 1-18.2-51.9 294.6 294.6 0 0 1-7.4-54.4 309.9 309.9 0 0 1 2.8-54.8c.3-2.3.7-4.5 1.1-6.8l.6-3.4.3-1.7v-.9l.2-.8c.9-4.4 1.7-8.7 2.8-13.3l1.6-6.7 1.8-6.6c1.1-4.4 2.6-8.8 3.9-13.1a359.1 359.1 0 0 1 20.9-50.6 389.7 389.7 0 0 1 28-46.9c1.3-1.9 2.6-3.7 4-5.6l4-5.5c2.8-3.6 5.5-7.3 8.4-10.8l8.6-10.5 8.7-10.3c11.7-13.7 23.7-27 35.2-40.6q8.7-10.2 16.8-20.7c5.4-7 10.7-14.1 15.6-21.4s9.4-14.8 13.4-22.5 7.9-15.7 11.2-23.8 6.3-16.4 9-24.7 4.8-16.9 6.6-25.5l.7-3.2.3-1.7.4-1.6 1.4-6.6c1.1-4.5 2.2-9.1 3.5-13.4a238.3 238.3 0 0 1 9.2-26 259.7 259.7 0 0 1 12-24.8 256.9 256.9 0 0 1 14.8-23.3 235.7 235.7 0 0 1 17.3-21.5A248 248 0 0 1 1272.4 832a6.2 6.2 0 0 1 3.5 12h-.1a234.8 234.8 0 0 0-109.5 68.8 223.3 223.3 0 0 0-16.4 20.4 244.5 244.5 0 0 0-14 22.1 247.1 247.1 0 0 0-11.4 23.6 225.8 225.8 0 0 0-8.7 24.7c-1.3 4.2-2.3 8.4-3.3 12.6l-1.4 6.6-.4 1.6-.3 1.6-.7 3.4c-1.9 8.9-4.2 17.8-6.9 26.6s-5.8 17.4-9.4 25.8-7.4 16.8-11.7 24.9-9 15.9-14.1 23.7-10.5 14.9-16.1 22.1-11.3 14.2-17.1 21.1c-11.7 13.8-23.7 27.1-35.3 40.7l-8.6 10.2-8.4 10.3c-2.8 3.4-5.4 7-8.1 10.5l-3.9 5.4c-1.3 1.8-2.6 3.6-3.8 5.4a377.3 377.3 0 0 0-27.1 45.4 346.6 346.6 0 0 0-20.1 48.8c-1.3 4.2-2.7 8.4-3.8 12.6l-1.7 6.4-1.5 6.3c-1.1 4.2-1.9 8.7-2.8 13l-.2.8v.4h0v.2l-.3 1.6L908 1395c-.3 2.2-.8 4.3-1 6.5a297.4 297.4 0 0 0-2.7 52.5 282.2 282.2 0 0 0 7.1 52 259 259 0 0 0 17.3 49.5l-11.8 3.6-.9-7.9-.4-7.9v-7.9l.5-7.9 1-7.9 1.5-7.8 1.9-7.7 2.3-7.6 2.8-7.4 3.2-7.2 3.6-7.1 4-6.8 4.4-6.6 4.8-6.3 5.2-6 5.5-5.7a6.2 6.2 0 0 1 10.6 4.9v.3l-.5 5.6-.4 5.6-.2 5.6v5.7l.2 5.7.3 5.6.5 5.6.7 5.6.8 5.6 1 5.6 1.2 5.5 1.3 5.5 1.5 5.5 1.6 5.4 1.8 5.4 2 5.3L967 1537l3.2-7.1 3.6-6.9 3.9-6.8 4.2-6.6 4.5-6.4 4.8-6.1 5-5.9 5.3-5.7 5.5-5.5 5.8-5.2 6-4.9 6.2-4.6 6.5-4.3 6.7-3.9 6.9-3.6 7-3A2.5 2.5 0 0 1 1054.6 1454.8zM1555.8 828.9l6.6 1.7 3.3.9 3.4 1 6.7 2.1 3.3 1.1 3.3 1.2a236.4 236.4 0 0 1 25.6 10.8 246.5 246.5 0 0 1 46.7 29.8 242.7 242.7 0 0 1 38.9 39.4 245.1 245.1 0 0 1 39.6 72.8c.7 2.2 1.5 4.4 2.2 6.6l1 3.3.5 1.7.3.8v1l3.4 13.1 13.4 52.5c.5 2.2 1 4.4 1.6 6.5s1.1 4.2 1.7 6.4 1.2 4.3 1.8 6.4 1.3 4.2 2 6.3a193.5 193.5 0 0 0 9.8 24.3 132.6 132.6 0 0 0 13.5 22 113.4 113.4 0 0 0 8.3 9.7l2.2 2.3.6.6h.2l.3.3 1.2 1.2 2.5 2.3 2.4 2.2c6.5 5.8 13.5 11.3 20.6 16.6s14.5 10.4 21.9 15.6 14.8 10.4 22.1 15.9l5.5 4.2 2.8 2.2 2.6 2.1 5.2 4.3 5.2 4.6a308.5 308.5 0 0 1 37.8 40.2 327.3 327.3 0 0 1 30.4 46c1.1 2 2.2 4 3.2 6.1l3.2 6.1 3 6.2 1.5 3.1 1.4 3.2 2.8 6.3 2.6 6.4c1.8 4.2 3.3 8.6 4.9 12.9a351 351 0 0 1 20 107.9 351.4 351.4 0 0 1-3 55 6.2 6.2 0 0 1-11.5 2.4h-.1l-3.3-5.6-3.4-5.5-3.6-5.4-3.8-5.2-3.9-5.1-4.1-5-4.3-4.9-4.4-4.7-4.5-4.6-4.7-4.5-4.8-4.3-4.9-4.2-5.1-4-5.2-3.8-5.3-3.7-5.4-3.5 8.3-9.1 2.8 3.8 2.7 3.9 2.5 4 2.4 4.1 2.2 4.1 2.1 4.2 1.9 4.3 1.8 4.4 1.6 4.4 1.5 4.5 1.3 4.5 1.2 4.6 1 4.6.8 4.6.7 4.7.5 4.7h0a6.2 6.2 0 0 1-10.8 4.8l-.4-.5-5.4-6.2-5.7-5.9-6-5.6-6.3-5.3-6.5-5-6.8-4.6-7-4.3-7.2-3.9-7.5-3.5-7.6-3.2-7.8-2.8-7.9-2.4-8.1-2.1-8.2-1.7-8.3-1.3-8.4-1h-.2a2.5 2.5 0 0 1 .1-5l8.8-.9h8.9l8.9.5 8.8 1.2 8.8 1.8 8.6 2.4 8.5 3 8.3 3.5 8.1 4 7.8 4.5 7.5 4.9 7.2 5.4 6.8 5.9 6.4 6.3 6 6.7 5.5 7.2-11.2 4.3h0l-.4-4.2-.6-4.2-.7-4.2-.9-4.2-1-4.1-1.2-4.1-1.3-4.1-1.5-4-1.6-4-1.8-3.9-1.9-3.8-2-3.8-2.2-3.7-2.3-3.6-2.4-3.5-2.5-3.4v-.2a6.2 6.2 0 0 1 8.4-8.9l5.7 3.7 5.6 3.9 5.5 4.1 5.4 4.2 5.2 4.4 5.1 4.6 5 4.7 4.8 4.9 4.7 5 4.5 5.2 4.3 5.3 4.2 5.4 4 5.6 3.8 5.7 3.7 5.8 3.5 5.9-11.6 2.2a338.9 338.9 0 0 0 2.9-53 338.5 338.5 0 0 0-19.3-104c-1.5-4.2-3-8.3-4.7-12.4l-2.5-6.2-2.7-6.1-1.3-3-1.4-3-2.9-6-3-5.9c-1-2-2-3.9-3.1-5.9a314.8 314.8 0 0 0-29.2-44.2l-4.1-5.2-4.3-5c-2.8-3.4-5.9-6.6-8.9-9.9-1.5-1.6-3.1-3.2-4.6-4.8s-3.1-3.2-4.7-4.7c-3.2-3-6.4-6.2-9.7-9l-4.9-4.3-5.2-4.3-2.6-2.1-2.5-2-5.3-4c-7.1-5.3-14.4-10.5-21.8-15.7-14.8-10.4-29.7-20.8-43.7-33.1l-2.6-2.3-2.5-2.3-1.2-1.2-.7-.6-.6-.6-2.5-2.5a125.9 125.9 0 0 1-9.3-10.8 145.1 145.1 0 0 1-14.7-24.1c-8.3-16.8-13.7-34.6-17.9-52.4l-13.4-52.3-3.4-13.1-1.8-6.2c-.6-2.1-1.4-4.2-2.1-6.3a232.6 232.6 0 0 0-37.6-69.1 230.2 230.2 0 0 0-37-37.4 234 234 0 0 0-44.4-28.3 223.9 223.9 0 0 0-24.3-10.2l-3.1-1.1-3.1-1-6.3-1.9-3.1-.9-3.2-.9-6.6-1.7A6.2 6.2 0 0 1 1555.8 828.9z" fill="#31323d"></path></g><g id="eye"><defs><clipPath id="eyeClipPath"><circle cx="1696" cy="1101.3" r="129.7" transform="rotate(-82.5 1695.15228554 1101.41325556)" fill="#fff" stroke="#31323d" stroke-linecap="round" stroke-miterlimit="10" stroke-width="10"></circle></clipPath><clipPath id="eyeClipPath2"><circle cx="1168.9" cy="1127" r="129.7" transform="rotate(-7.5 1174.5997126 1131.94800874)" fill="#fff" stroke="#31323d" stroke-linecap="round" stroke-miterlimit="10" stroke-width="10"></circle></clipPath></defs><path fill="none" d="M3000 3010L0 3000 0 0 3000 10 3000 3010z"></path><circle cx="1696" cy="1101.3" r="129.7" transform="rotate(-82.5 1695.15228554 1101.41325556)" fill="#fff"></circle><g clip-path="url(#eyeClipPath)"><circle cx="1685.5" cy="1080.4" r="87.6" transform="rotate(-7.5 1693.2995019 1084.73563479)" fill="#Ff9088"></circle><circle cx="1689.1" cy="1081.7" r="64.7" transform="rotate(-7.5 1697.06376483 1085.74848737)" fill="#31323d"></circle><circle cx="1711.1" cy="1026.3" r="35.2" transform="rotate(-7.5 1719.07222685 1030.49739613)" fill="#fff"></circle></g><circle cx="1696" cy="1101.3" r="129.7" transform="rotate(-82.5 1695.15228554 1101.41325556)" fill="none" stroke="#31323d" stroke-linecap="round" stroke-miterlimit="10" stroke-width="10"></circle><path d="M1823.8,998.5c-65.3,7.2-110.2-14.8-157-53.2" fill="none" stroke="#31323d" stroke-linecap="round" stroke-miterlimit="10" stroke-width="30"></path><circle cx="1168.9" cy="1127" r="129.7" transform="rotate(-7.5 1174.5997126 1131.94800874)" fill="#fff"></circle><g clip-path="url(#eyeClipPath2)"><circle cx="1179.4" cy="1095.2" r="87.6" transform="rotate(-7.5 1185.14109102 1099.6953476)" fill="#Ff9088"></circle><circle cx="1183" cy="1096.4" r="64.7" transform="rotate(-7.5 1188.14250136 1100.6582002)" fill="#31323d"></circle><circle cx="1205.1" cy="1041" r="35.2" transform="rotate(-7.5 1210.91381597 1045.45710895)" fill="#fff"></circle></g><circle cx="1168.9" cy="1127" r="129.7" transform="rotate(-7.5 1174.5997126 1131.94800874)" fill="none" stroke="#31323d" stroke-linecap="round" stroke-miterlimit="10" stroke-width="10"></circle><path d="M1819.9,1139.1a129.8,129.8,0,0,1-234.8,29.5c35.5-16.8,66.9-31.8,108.7-36.1C1745.4,1127.1,1787.6,1134.1,1819.9,1139.1Z" fill="#d1dadf"></path><path d="M1819.9,1139.1a129.8,129.8,0,0,1-234.8,29.5c54.7-26.4,66.9-31.8,108.7-36.1C1745.4,1127.1,1780.2,1132.5,1819.9,1139.1Z" fill="none" stroke="#31323d" stroke-linecap="round" stroke-miterlimit="10" stroke-width="10"></path><path d="M1044.5,1163.4a129.8,129.8,0,0,0,234.8,29.5c-35.5-16.8-66.9-31.8-108.7-36.1C1119,1151.4,1076.8,1158.4,1044.5,1163.4Z" fill="#d1dadf"></path><path d="M1044.5,1163.4a129.8,129.8,0,0,0,234.8,29.5c-54.7-26.4-66.9-31.8-108.7-36.1C1119,1151.4,1084.3,1156.7,1044.5,1163.4Z" fill="none" stroke="#31323d" stroke-linecap="round" stroke-miterlimit="10" stroke-width="10"></path><path d="M1030.6,1029.3c66.1,3.1,111.5-17.1,151.7-66.9" fill="none" stroke="#31323d" stroke-linecap="round" stroke-miterlimit="10" stroke-width="30"></path></g><g id="mouth"><defs><clipPath id="mouthClipPath"><path d="M1334.2,1332.1s21.5,50.9,80.8,50.8c84.7-.1,107.5-33.1,104.3-70.1-46.2-29-84.5-83.2-84.5-83.2C1381.8,1326.1,1334.2,1332.1,1334.2,1332.1Z" fill="#31323d" stroke="#31323d" stroke-linecap="round" stroke-linejoin="round" stroke-width="8"></path></clipPath></defs><g><path d="M1334.2,1332.1s21.5,50.9,80.8,50.8c84.7-.1,107.5-33.1,104.3-70.1-46.2-29-84.5-83.2-84.5-83.2C1381.8,1326.1,1334.2,1332.1,1334.2,1332.1Z" fill="#31323d"></path><g clip-path="url(#mouthClipPath)"><path d="M1361,1250.7l39.5,65.2c6.3,10.3,22.2,5.4,21.5-6.6l-4.5-84.4Z" fill="#fff" stroke="#30313c" stroke-linecap="round" stroke-linejoin="round"></path><path d="M1439,1221.6l2.6,86c0.5,17,22.3,23.8,32.4,10l31.7-43.5" fill="#fff" stroke="#30313c" stroke-linecap="round" stroke-linejoin="round"></path><path d="M1362.7,1374.1s16.6-16.8,72.6-19c57.8-2.3,77.7,27.8,77.7,27.8l-86.1,20.9Z" fill="#f29cb1"></path></g><path d="M1334.2,1332.1s21.5,50.9,80.8,50.8c84.7-.1,107.5-33.1,104.3-70.1-46.2-29-84.5-83.2-84.5-83.2C1381.8,1326.1,1334.2,1332.1,1334.2,1332.1Z" fill="none" stroke="#31323d" stroke-linecap="round" stroke-linejoin="round" stroke-width="8"></path><path d="M1445.1,1232.5l1.1,1.7,3.5,4.8c3.1,4.2,7.6,10,13.3,16.9s12.7,14.6,20.6,22.4a265.1,265.1,0,0,0,26.3,22.9,181.8,181.8,0,0,0,29.5,18.4,121.3,121.3,0,0,0,28.5,10,96.9,96.9,0,0,0,11.9,1.7,87.5,87.5,0,0,0,9.3.2l6-.4,2.1-.2h0.1a1.8,1.8,0,0,1,.5,3.5l-2.2.4-6.2.8a91.8,91.8,0,0,1-9.8.3,101.9,101.9,0,0,1-12.6-1,127.5,127.5,0,0,1-30.5-8.7,189.9,189.9,0,0,1-31.9-17.3,275.3,275.3,0,0,1-28.7-22.1c-8.7-7.6-16.4-15.2-22.7-21.9s-11.4-12.5-14.9-16.7l-4-4.9-1.4-1.8a7.5,7.5,0,0,1,11.9-9.2l0.2,0.3h0.1Z" fill="#31323d"></path><path d="M1442.4,1227.1a5.2,5.2,0,0,1,.2.8,8.5,8.5,0,0,1,.1,2.1,10,10,0,0,1-.6,3,36.1,36.1,0,0,1-1.8,3.6l-1.1,2.1-1.3,2.3-3,5.2c-1,1.9-2.2,3.8-3.5,5.9l-4,6.4-4.5,6.8c-1.6,2.4-3.3,4.7-5.1,7.2s-3.7,4.9-5.6,7.4-4.1,5-6.2,7.5l-1.6,1.9-1.7,1.8-3.4,3.7c-1.1,1.3-2.4,2.4-3.6,3.7l-3.7,3.6c-2.6,2.3-5.1,4.8-7.9,6.9l-4.1,3.3-4.3,3.2a139.3,139.3,0,0,1-18.1,10.9,120.5,120.5,0,0,1-19.1,7.4,108.7,108.7,0,0,1-35.8,4.2,108.6,108.6,0,0,1-14.2-1.6c-4.2-.7-7.8-1.6-10.7-2.4l-6.7-2.1-2.4-.8a1.2,1.2,0,0,1,.6-2.3h0l2.4,0.6,6.7,1.4c2.9,0.5,6.5,1.1,10.6,1.4a111.9,111.9,0,0,0,13.7.4,100.1,100.1,0,0,0,16-1.7,103.3,103.3,0,0,0,17.2-4.6,119,119,0,0,0,17.2-8,129.7,129.7,0,0,0,16.2-11.1l3.8-3.2,3.7-3.3c2.5-2.2,4.7-4.6,7.1-6.8l3.3-3.6c1.1-1.2,2.2-2.3,3.2-3.6l3.1-3.7,1.5-1.8,1.4-1.9c3.9-4.9,7.3-9.8,10.5-14.6,1.6-2.4,3.2-4.7,4.5-7l4.1-6.7,3.5-6.3c1.1-2,2.2-3.9,3.1-5.7l2.6-5,1.2-2.2,1-2.1a36.1,36.1,0,0,1,1.8-3.6,10,10,0,0,1,2-2.3,8.5,8.5,0,0,1,1.8-1.1l0.8-.3A7.4,7.4,0,0,1,1442.4,1227.1Z" fill="#31323d"></path><path d="M1369.7,1207.1a15,15,0,0,1,3.8-15.9c9.1-8.6,28.5-21.2,64.1-20.8s52.3,13,60.2,21.9a14.9,14.9,0,0,1,2.3,16.1h0a20.8,20.8,0,0,1-18.5,12c-10,.2-24,2.9-33,15.3a13.2,13.2,0,0,1-1.9,2.1l-0.3.3a17.7,17.7,0,0,1-25.3-1.8h0s-7.1-12.6-33.9-15.1a20.7,20.7,0,0,1-17.5-13.8v-0.3Z" fill="#31323d"></path><path d="M1362.7,1410.9s9.3,64.4,79.3,57.9c67.7-6.3,70.7-67.3,70.7-67.3s-22.4,28.5-66.2,31.7S1362.7,1410.9,1362.7,1410.9Z" fill="#595959" opacity=".2" style="mix-blend-mode:multiply"></path><path d="M1515.2,1398.9l-0.6,1.9-0.3,1-0.5,1.3a33,33,0,0,1-1.4,3.2,51.8,51.8,0,0,1-4.8,7.9,63.8,63.8,0,0,1-8.1,8.9,73,73,0,0,1-11.4,8.4l-3.3,1.9-3.5,1.8-3.6,1.6-3.8,1.5-3.9,1.4-4,1.2-4.1,1.1-4.2.9a108.7,108.7,0,0,1-17.1,2,113.7,113.7,0,0,1-33.5-3.7l-1.9-.5-1.1-.3-0.9-.3-3.6-1.2c-2.5-.9-4.9-1.8-7.1-2.7a94.5,94.5,0,0,1-12.3-6.3,77.3,77.3,0,0,1-16.1-12.9l-1.2-1.3-1-1.2-1.6-1.9-1.2-1.6a2.5,2.5,0,0,1,3.5-3.5h0.1l1.5,1.1,1.8,1.3,2.5,1.7c1.9,1.3,4.3,2.7,7,4.2a99.4,99.4,0,0,0,9.5,4.6,118.6,118.6,0,0,0,11.7,4.2l3.2,0.9,3.3,0.8,3.5,0.8,0.9,0.2h0.8l1.8,0.3a131.4,131.4,0,0,0,14.6,1.9,126.4,126.4,0,0,0,30.2-1.4l3.7-.7,3.6-.8,3.5-.9,3.4-1,3.3-1.1,3.2-1.2,3.1-1.2,3-1.3a78.4,78.4,0,0,0,10.6-5.8,70.4,70.4,0,0,0,8.1-6.2c1.1-1,2.2-2,3.1-3l1.3-1.4,1.1-1.3c0.8-.8,1.3-1.6,1.8-2.3l0.7-.9,0.6-.9,1.1-1.6A2.5,2.5,0,0,1,1515.2,1398.9Z" fill="#31323d"></path><path d="M1543.9,1246.6l7.3-1.3c4.8-.8,11.9-2,21-3.3a703.9,703.9,0,0,1,75.3-6.7,689,689,0,0,1,106.7,4.5c19.4,2.4,39.3,5.6,59.4,10s40.2,9.7,60,16,39.4,13.6,58.2,21.7l14,6.2,13.7,6.5,6.7,3.3,6.6,3.4c4.4,2.3,8.8,4.5,13,6.9l12.7,7,12.2,7.3,3,1.8,3,1.9,5.8,3.7,5.8,3.7,5.6,3.7c14.9,9.8,28.5,19.9,40.8,29.5s23.1,18.9,32.6,27.3c4.7,4.2,9.1,8.2,13,12l5.7,5.4,5.1,5c3.3,3.2,6.1,6.1,8.6,8.6l3.4,3.5,2.8,3,5.1,5.4-5.2-5.3-2.8-2.9-3.5-3.4c-2.5-2.5-5.4-5.3-8.7-8.4l-5.2-4.9-5.8-5.3c-4-3.7-8.5-7.6-13.2-11.8-9.6-8.2-20.5-17.4-32.9-26.7s-26.1-19.2-41.1-28.8l-5.6-3.6-5.8-3.6-5.9-3.6-3-1.8-3-1.7-12.3-7-12.7-6.8c-4.2-2.4-8.7-4.4-13-6.7l-6.6-3.3-6.8-3.2-13.7-6.3-14-6c-18.8-7.7-38.3-14.7-58.1-20.6s-39.8-11-59.8-15-39.7-6.9-59-9a681.3,681.3,0,0,0-105.6-2.9,694.9,694.9,0,0,0-74.3,7.7c-8.9,1.4-15.9,2.7-20.6,3.6l-7.3,1.4h0a5,5,0,0,1-1.9-9.8h0.1Z" fill="#31323D"></path><path d="M1343.6,1269l-4.6-.8c-3-.5-7.4-1.2-13.1-2a355.2,355.2,0,0,0-47.4-2.9,343.7,343.7,0,0,0-66.8,6.8,312.1,312.1,0,0,0-36.6,9.9,298.6,298.6,0,0,0-36.3,14.9,277.7,277.7,0,0,0-33.9,19.8c-5.4,3.6-10.5,7.5-15.6,11.3s-9.9,8-14.4,12.1l-3.4,3.1-3.3,3.2-6.5,6.3-6.1,6.4c-2,2.1-3.9,4.3-5.8,6.4a289.4,289.4,0,0,0-19.7,25.2c-5.6,8.2-10.6,15.8-14.5,22.9l-2.9,5.1-2.6,4.8c-1.6,3.1-3.1,5.9-4.3,8.6-2.6,5.2-4.4,9.4-5.7,12.2l-1.9,4.4,1.8-4.4c1.2-2.9,3-7.1,5.4-12.4,1.2-2.7,2.6-5.5,4.1-8.7l2.5-4.9c0.9-1.7,1.8-3.4,2.8-5.2,3.8-7.1,8.6-15,14-23.3A291.5,291.5,0,0,1,1048,1362c1.9-2.2,3.7-4.4,5.6-6.6l6-6.6,6.4-6.5,3.3-3.3,3.4-3.2c4.5-4.4,9.4-8.4,14.3-12.6s10.1-8.1,15.5-11.8a282.2,282.2,0,0,1,34-20.9,304.1,304.1,0,0,1,36.6-16,318.5,318.5,0,0,1,37.1-10.9,351.3,351.3,0,0,1,68.1-8.6,364.3,364.3,0,0,1,48.6,1.8c5.9,0.6,10.4,1.3,13.6,1.7l4.8,0.8a5,5,0,1,1-1.6,9.9h-0.2Z" fill="#31323D"></path><path d="M705.3,1403.8l5.4-4.7c3.6-3,8.8-7.5,15.6-13,13.6-11,33.4-26.2,58.5-42.7a739.6,739.6,0,0,1,89.3-50.4c17-8.1,34.8-15.7,53.2-22.8s37.5-13.4,56.7-18.9,38.8-10.3,58.2-14.1l14.5-2.7,3.6-.7,3.6-.6,7.2-1.1,7.1-1.1,7.1-.9,7.1-.9,3.5-.5,3.5-.4,13.9-1.5,13.7-1.1c4.5-.4,9-0.6,13.4-0.8l6.6-.4,6.5-.2,12.8-.4h30.2l5.7,0.2,11.1,0.4,10.6,0.6,10,0.7,9.4,0.8,8.9,0.8,8.2,0.9,14.5,1.8,11.6,1.7,8.6,1.3,7.1,1.2a5,5,0,1,1-1.6,9.9h-0.2l-7-1.3-8.4-1.5-11.4-1.8-14.2-2-8.1-1-8.7-1-9.3-.9-9.9-.9-10.4-.7-10.9-.6-5.6-.3-5.8-.2-11.8-.3h-12.2l-12.6.2h-6.4l-6.5.3c-4.4.2-8.8,0.3-13.3,0.6l-13.6.9-13.8,1.2-3.5.3-3.5.4-7,.8-7.1.8-7.1,1-7.2,1-3.6.5-3.5.6-14.4,2.4c-19.3,3.4-38.7,7.9-57.9,13s-38.2,11.2-56.7,17.9-36.3,14-53.3,21.8a737.3,737.3,0,0,0-89.8,48.8c-25.3,16.1-45.3,31-59.1,41.8-6.9,5.4-12.2,9.7-15.8,12.7Z" fill="#31323D"></path><path d="M1568.3,1218.8l93.9-8.8,45.5-4.3,24.8-2.3,12.8-1.2,6.6-.6,6.6-.5,6.6-.5,6.7-.4,13.7-.5c2.3-.1,4.6,0,6.9-0.1h13.9l7,0.3c9.3,0.2,18.7,1.1,28.1,1.8l14.1,1.6,3.5,0.4,3.5,0.5,7,1.1,7,1.1,7,1.3,7,1.3,3.5,0.7,3.4,0.8,13.8,3.2,13.5,3.7,3.4,0.9,3.3,1,6.6,2.1,6.6,2.1,6.5,2.3,6.4,2.3c2.1,0.8,4.3,1.5,6.4,2.3l12.5,5,6.1,2.6,6,2.7,5.9,2.6,5.8,2.8,11.4,5.6,10.9,5.8,10.5,5.8,10.1,5.7,19.2,10.8,82.2,46.2-82.9-44.8-19.4-10.5-10.2-5.5-10.6-5.6-10.9-5.6-11.4-5.4-5.8-2.7-5.9-2.5-6-2.5-6.1-2.5-12.5-4.7c-2.1-.8-4.2-1.5-6.4-2.2l-6.4-2.2-6.5-2.2-6.6-1.9-6.6-1.9-3.3-1-3.4-.9-13.5-3.4-13.7-2.9-3.4-.7-3.5-.6-6.9-1.2-6.9-1.2-7-1-7-1-3.5-.5-3.5-.4-14-1.4c-9.3-.6-18.6-1.3-27.8-1.3l-6.9-.2h-13.7c-2.3.1-4.5,0-6.8,0.2l-13.4.7-6.7.5-6.6.6-6.6.6-6.4.7-12.8,1.4-24.8,2.7-45.4,5-93.7,10.4a5,5,0,1,1-1.1-9.9h0.1Z" fill="#31323D"></path><path d="M1328.4,1290.2l-0.6-.2-1.7-.5c-1.6-.4-3.9-1-6.8-1.5a118.2,118.2,0,0,0-25-2,106.8,106.8,0,0,0-16.7,1.8,93.4,93.4,0,0,0-18,5.3,86.7,86.7,0,0,0-17.6,9.6l-2.2,1.5-2,1.6c-1.4,1-2.7,2.2-4,3.3a96.1,96.1,0,0,0-7.4,7.4,98.4,98.4,0,0,0-12.3,17,106.3,106.3,0,0,0-8.4,18.7,110.3,110.3,0,0,0-4.6,18.7,119.6,119.6,0,0,0-1.4,17.2,117.8,117.8,0,0,0,.7,14.7c0.4,4.4,1.2,8.1,1.8,11.2s1.2,5.5,1.7,7.1l0.7,2.5-0.8-2.5c-0.5-1.6-1.2-4-2-7.1s-1.6-6.8-2.2-11.2a119.1,119.1,0,0,1-1.4-14.8,121.4,121.4,0,0,1,.7-17.6,113,113,0,0,1,3.9-19.3,109.9,109.9,0,0,1,7.8-19.7,102.9,102.9,0,0,1,12.1-18.3,101.4,101.4,0,0,1,7.5-8.2c1.4-1.3,2.7-2.5,4.1-3.7l2.1-1.8,2.1-1.7a93.1,93.1,0,0,1,18.4-11.1,100.6,100.6,0,0,1,19.1-6.6,114.8,114.8,0,0,1,17.9-2.7,127.2,127.2,0,0,1,27,1c3.2,0.5,5.8,1,7.5,1.3l2,0.4,0.6,0.2a5,5,0,1,1-2.3,9.7h-0.2Z" fill="#31323D"></path><path d="M1567.9,1266.4l2.7-.4,7.9-.8,5.6-.3h6.7a128.8,128.8,0,0,1,15.9,1.4,121.4,121.4,0,0,1,37.6,12.3,115.4,115.4,0,0,1,18.7,12.3,106.3,106.3,0,0,1,16.2,16.3,102.8,102.8,0,0,1,6.7,9.4c1,1.6,2,3.3,2.9,4.9l1.4,2.5,1.2,2.5c0.8,1.6,1.5,3.4,2.3,5.2s1.3,3.5,2,5.2a103.2,103.2,0,0,1,3,10.5,102.2,102.2,0,0,1,2.5,20.4,114.4,114.4,0,0,1-1,18.3,128.8,128.8,0,0,1-6.4,26.5c-1.1,3.1-2.1,5.5-2.8,7.1l-1.1,2.5,1-2.5c0.6-1.6,1.5-4.1,2.5-7.2a127.8,127.8,0,0,0,5.3-26.6,112.5,112.5,0,0,0,.2-18,100.1,100.1,0,0,0-6.6-29.8c-0.7-1.6-1.4-3.3-2.1-4.9s-1.5-3.2-2.4-4.8a95.2,95.2,0,0,0-12.4-18,100.9,100.9,0,0,0-16-14.8,109.1,109.1,0,0,0-18.1-10.8,113.8,113.8,0,0,0-35.7-10.1,120.1,120.1,0,0,0-14.8-.7h-3.2l-3,.2-5.2.5-7.2,1-2.7.5a5,5,0,1,1-1.7-9.8h0.2Z" fill="#31323D"></path></g></g></svg>